<svg id="Gradient" xmlns="http://www.w3.org/2000/svg" xmlns:xlink="http://www.w3.org/1999/xlink" width="256" height="392.4" viewBox="0 0 256 392.4"><defs><style>.cls-1{fill:url(#linear-gradient);}</style><linearGradient id="linear-gradient" x1="272.85" y1="145.72" x2="272.85" y2="497.77" gradientTransform="matrix(1, 0, 0, -1, 0, 514)" gradientUnits="userSpaceOnUse"><stop offset="0" stop-color="#12c2e9"/><stop offset="0.5" stop-color="#c471ed"/><stop offset="1" stop-color="#f64f59"/></linearGradient></defs><path class="cls-1" d="M193.46,368.28a31.82,31.82,0,0,1-22.63-9.37l-144-144a32,32,0,0,1,0-45.26l144-144a32,32,0,0,1,45.26,45.26L94.7,192.27,216.09,313.65a32,32,0,0,1-22.63,54.63Zm-11.31-20.69A16,16,0,0,0,204.78,325h0l-127-127a8,8,0,0,1,0-11.32h0l127.05-127a16,16,0,0,0-22.49-22.77l-.14.14-144,144a16,16,0,0,0,0,22.62h0Zm170.1,20.66a32,32,0,0,1-22.63-54.63L451,192.24,329.62,70.86A32,32,0,0,1,374.88,25.6l144,144a32,32,0,0,1,0,45.26l-144,144a31.83,31.83,0,0,1-22.63,9.38Zm0-336a16,16,0,0,0-11.32,27.31L468,186.58a8,8,0,0,1,0,11.31h0l-127,127a16,16,0,0,0,22.63,22.63l144-144a16,16,0,0,0,0-22.63h0l-144-144A15.91,15.91,0,0,0,352.25,32.24Z"/></svg>
