<svg id="Gradient" xmlns="http://www.w3.org/2000/svg" xmlns:xlink="http://www.w3.org/1999/xlink" width="256" height="392.4" viewBox="0 0 256 392.4"><defs><style>.cls-1{fill:url(#linear-gradient);}</style><linearGradient id="linear-gradient" x1="-10.27" y1="145.72" x2="-10.27" y2="497.77" gradientTransform="matrix(1, 0, 0, -1, 0, 514)" gradientUnits="userSpaceOnUse"><stop offset="0" stop-color="#12c2e9"/><stop offset="0.5" stop-color="#c471ed"/><stop offset="1" stop-color="#f64f59"/></linearGradient></defs><path class="cls-1" d="M-89.67,368.28a31.82,31.82,0,0,1-22.63-9.37l-144-144a32,32,0,0,1,0-45.26l144-144a32,32,0,0,1,45.26,0,32,32,0,0,1,0,45.26L-188.42,192.27-67,313.65a32,32,0,0,1,0,45.25,32,32,0,0,1-22.64,9.38ZM-101,347.59a16,16,0,0,0,22.63,0,16,16,0,0,0,0-22.63h0l-127.06-127a8,8,0,0,1,0-11.32h0l127.05-127A16,16,0,0,0-78.21,37a16,16,0,0,0-22.63-.14A1.85,1.85,0,0,1-101,37L-245,181a16,16,0,0,0,0,22.62h0Zm170.1,20.66a32,32,0,0,1-22.63-54.63L167.88,192.24,46.49,70.86A32,32,0,0,1,91.75,25.6l144,144a32,32,0,0,1,0,45.26l-144,144a31.83,31.83,0,0,1-22.63,9.38Zm0-336A16,16,0,0,0,57.81,59.55l127,127a8,8,0,0,1,0,11.31h0l-127,127a16,16,0,0,0,22.63,22.63l144-144a16,16,0,0,0,0-22.63h0l-144-144A15.92,15.92,0,0,0,69.12,32.24Z"/></svg>
