<svg id="Layer_1" data-name="Layer 1" xmlns="http://www.w3.org/2000/svg" width="320" height="390" viewBox="0 0 320 390"><defs><style>.cls-1{fill:#604302;}.cls-2{fill:#bc7a11;}.cls-3{fill:#e1b991;}.cls-4{fill:#adceee;}.cls-5{fill:#8ea2b2;}.cls-6{fill:#3c3c3b;}.cls-7{fill:#fff;}.cls-8{fill:#5cc1d0;}.cls-9{fill:#010202;}</style></defs><path class="cls-1" d="M121.59,280l7.67-10.05C139,257.62,140,237.73,139,230c-2.9-23-41-10.83-41-10.83l.76,6.69a28.28,28.28,0,0,1-8.6,23.65l-29,27.59h0c-.09.08-.2.14-.29.23l-3.31,3.16c-2.58,2.46-3,6.22-1,8.35l2.61,2.73c2,2.13,5.81,1.87,8.39-.59-2.58,2.46-3,6.21-1,8.34l2.71,2.84c2,2.13,5.8,1.87,8.38-.59-2.58,2.46-3,6.21-1,8.34l2.62,2.74c2,2.13,5.8,1.86,8.38-.6L91,308.91c.09-.09.16-.19.25-.28l.14.15Zm-80.3-29.6v.06c-.13,0-.25,0-.37,0Zm-.37,14.67c.12,0,.24,0,.37,0v.06Z"/><path class="cls-2" d="M97.46,126.4a100.42,100.42,0,0,1,200.61,0h.13V380.66H97.33V126.4Z"/><circle class="cls-3" cx="194.51" cy="155.15" r="2.51"/><circle class="cls-3" cx="181.75" cy="162.36" r="2.51"/><circle class="cls-3" cx="203.37" cy="169.67" r="2.51"/><circle class="cls-3" cx="122.22" cy="156.32" r="2.51"/><circle class="cls-3" cx="112.26" cy="167.38" r="2.51"/><circle class="cls-3" cx="132.19" cy="178.79" r="2.51"/><path class="cls-1" d="M254.17,238l2-12.49c2.19-15.55,15.87-30,22.13-34.64C297,177.09,297.8,177,297.8,177l.14,102.77h0c0,.13,0,.25,0,.37v4.58c0,3.57-2.41,6.48-5.35,6.48h-3.79c-2.94,0-5.35-2.91-5.35-6.48,0,3.57-2.41,6.48-5.36,6.48h-3.93c-2.94,0-5.35-2.91-5.35-6.48,0,3.57-2.41,6.48-5.36,6.48H259.7c-2.95,0-5.35-2.91-5.35-6.48V280.1c0-.12,0-.24,0-.37h-.21Zm29.34,41.7h-.06c0,.13,0,.25,0,.37C283.48,280,283.5,279.86,283.51,279.73Zm-14.67.37c0-.12,0-.24,0-.37h-.06C268.81,279.86,268.84,280,268.84,280.1Z"/><path class="cls-1" d="M298.2,380.66a7.09,7.09,0,1,1,13.16,0Z"/><path class="cls-1" d="M115.64,380.66a7.09,7.09,0,1,1,13.16,0Z"/><path class="cls-1" d="M94.76,380.66a10.89,10.89,0,1,1,21-4,10.69,10.69,0,0,1-.79,4Z"/><path class="cls-1" d="M221.43,380.66a2.57,2.57,0,0,1-.19-1,2.62,2.62,0,0,1,5.23,0,2.57,2.57,0,0,1-.19,1Z"/><path class="cls-1" d="M164.94,380.66a2.57,2.57,0,0,1-.19-1,2.62,2.62,0,0,1,5.23,0,2.57,2.57,0,0,1-.19,1Z"/><path class="cls-1" d="M274.73,380.66a2,2,0,0,1-.25-1c0-1.44,1.5-2.61,3.35-2.61s3.34,1.17,3.34,2.61a2,2,0,0,1-.24,1Z"/><path class="cls-1" d="M280.6,380.66a2.7,2.7,0,0,0,.11-.71,2.61,2.61,0,0,0-1.46-2.33c1.65-2.23,4.89-3.75,8.62-3.75,5.26,0,9.54,3,9.76,6.79Z"/><path class="cls-1" d="M149.93,156.32h0a7.38,7.38,0,0,1,7.38,7.38v1a6.43,6.43,0,0,1-6.43,6.43H149a6.43,6.43,0,0,1-6.43-6.43v-1a7.38,7.38,0,0,1,7.38-7.38Z" transform="translate(299.85 327.4) rotate(-180)"/><path class="cls-4" d="M186.78,115.86h0A19.22,19.22,0,0,1,206,135.08v8.29a0,0,0,0,1,0,0H164.41a0,0,0,0,1,0,0v-5.13A22.37,22.37,0,0,1,186.78,115.86Z" transform="translate(370.41 259.22) rotate(-180)"/><path class="cls-4" d="M114.85,115.86h0a20.72,20.72,0,0,1,20.72,20.72v6.79a0,0,0,0,1,0,0H94a0,0,0,0,1,0,0v-6.63a20.87,20.87,0,0,1,20.87-20.87Z" transform="translate(229.55 259.22) rotate(-180)"/><rect class="cls-5" x="194.32" y="120.34" width="11.46" height="0.99" rx="0.35" transform="translate(280.36 340.31) rotate(-141.24)"/><rect class="cls-5" x="193.85" y="123.49" width="11.46" height="0.99" rx="0.35" transform="translate(277.56 345.61) rotate(-141.24)"/><rect class="cls-5" x="121.89" y="121.17" width="11.46" height="0.99" rx="0.35" transform="translate(150.95 296.43) rotate(-141.24)"/><rect class="cls-5" x="121.42" y="124.32" width="11.46" height="0.99" rx="0.35" transform="translate(148.14 301.74) rotate(-141.24)"/><path class="cls-6" d="M135.51,123.35s8.18-3.48,12.56-2.9,16.27,4.65,16.27,4.65v-4.65s-13.44-4-16.27-4.33-12.56,2.37-12.56,2.37Z"/><path class="cls-6" d="M206,122.56s10.84-2.26,16.65-1.89,21.58,3,21.58,3v-3s-17.83-2.57-21.58-2.8S206,119.4,206,119.4Z"/><path class="cls-7" d="M138.06,197.5q-1,0-1.95-.09v44a.71.71,0,0,0,.7.7h11.34a.7.7,0,0,0,.7-.7V193.56C147,195.89,142.86,197.5,138.06,197.5Z"/><path class="cls-7" d="M161.79,197.5q1,0,2-.09v44a.7.7,0,0,1-.7.7H151.7a.7.7,0,0,1-.7-.7V193.56C152.87,195.89,157,197.5,161.79,197.5Z"/><path class="cls-8" d="M208.23,145.25l1.13,5.27,1.13,2.93.87,3.18s-.72,3.18-3.13,2.88c-2.22-.28-2.23-3-2.23-3l.9-3.43.68-2.8Z"/><path class="cls-9" d="M121.19,108.85a79.57,79.57,0,0,1-14.71-1.51L107,105a80.32,80.32,0,0,0,13.56,1.46c6.26.08,14.34-.83,17.1-5.62l2.09,1.21C136.59,107.46,128.57,108.85,121.19,108.85Z"/><path class="cls-9" d="M180.75,113.92c-7.38,0-15.39-1.39-18.53-6.83l2.09-1.2c2.76,4.78,10.81,5.69,17.1,5.61A78.15,78.15,0,0,0,195,110l.5,2.36A78.23,78.23,0,0,1,180.75,113.92Z"/></svg>
