<svg id="Layer_1" data-name="Layer 1" xmlns="http://www.w3.org/2000/svg" width="320" height="390" viewBox="0 0 320 390"><defs><style>.cls-1{fill:#604302;}.cls-2{fill:#bc7a11;}.cls-3{fill:#e1b991;}.cls-4{fill:#adceee;}.cls-5{fill:#8ea2b2;}.cls-6{fill:#3c3c3b;}.cls-7{fill:#fff;}.cls-8{fill:#f5b762;}.cls-9{fill:#27566a;}.cls-10{fill:#010202;}</style></defs><path class="cls-1" d="M32.55,243.71v.06c-.13,0-.24,0-.37,0C32.31,243.74,32.42,243.72,32.55,243.71Zm-.37,14.84c.13,0,.24,0,.37,0v.06C32.42,258.58,32.31,258.55,32.18,258.55Zm17.87-25.43L60.17,241c12.4,9.93,32.52,11.09,40.34,10.15,23.32-2.79,11.21-41.41,11.21-41.41l-6.77.72a28.6,28.6,0,0,1-23.87-8.85L53.35,172h0c-.08-.09-.14-.2-.23-.29l-3.18-3.37c-2.47-2.63-6.27-3.1-8.43-1.06L38.71,170c-2.17,2-1.92,5.86.55,8.48-2.47-2.62-6.27-3.09-8.44-1.05l-2.89,2.73c-2.17,2-1.92,5.86.55,8.48C26,186,22.21,185.49,20,187.54l-2.78,2.62c-2.17,2.05-1.92,5.86.55,8.49L21,202a3.53,3.53,0,0,0,.28.25l-.16.14Z"/><path class="cls-2" d="M89.38,118.27a101.61,101.61,0,0,1,203,0h.12V375.52H89.26V118.27Z"/><circle class="cls-3" cx="187.58" cy="147.36" r="2.54"/><circle class="cls-3" cx="174.67" cy="154.65" r="2.54"/><circle class="cls-3" cx="196.54" cy="162.04" r="2.54"/><circle class="cls-3" cx="114.43" cy="148.54" r="2.54"/><circle class="cls-3" cx="104.36" cy="159.73" r="2.54"/><circle class="cls-3" cx="124.53" cy="171.27" r="2.54"/><path class="cls-1" d="M312.28,194.59l-2,12.63c-2.22,15.74-16.06,30.37-22.4,35.06-18.88,14-19.74,14.1-19.74,14.1l-.15-104h0c0-.12,0-.24,0-.37v-4.63c0-3.61,2.44-6.56,5.42-6.56h3.83c3,0,5.42,2.95,5.42,6.56,0-3.61,2.43-6.56,5.41-6.56h4c3,0,5.42,2.95,5.42,6.56,0-3.61,2.43-6.56,5.41-6.56h3.83c3,0,5.42,2.95,5.42,6.56V152c0,.13,0,.25,0,.37h.2Zm-59.17,81.62h-.06c0,.13,0,.25,0,.37C253.08,276.46,253.1,276.34,253.11,276.21Zm-14.84.37c0-.12,0-.24,0-.37h-.06C238.24,276.34,238.27,276.46,238.27,276.58Z"/><path class="cls-1" d="M292.48,375.52a7.25,7.25,0,0,1-.51-2.64,7.17,7.17,0,1,1,14.34,0,7.25,7.25,0,0,1-.51,2.64Z"/><path class="cls-1" d="M107.78,375.52a7.06,7.06,0,0,1-.52-2.64,7.18,7.18,0,1,1,14.35,0,7.26,7.26,0,0,1-.52,2.64Z"/><path class="cls-1" d="M86.65,375.52a11,11,0,1,1,20.46,0Z"/><path class="cls-1" d="M214.81,375.52a2.67,2.67,0,0,1-.19-1,2.65,2.65,0,0,1,5.29,0,2.67,2.67,0,0,1-.19,1Z"/><path class="cls-1" d="M157.66,375.52a2.67,2.67,0,0,1-.19-1,2.65,2.65,0,0,1,5.29,0,2.67,2.67,0,0,1-.19,1Z"/><path class="cls-1" d="M268.74,375.52a2.1,2.1,0,0,1-.25-1c0-1.46,1.52-2.64,3.39-2.64s3.38,1.18,3.38,2.64a2.22,2.22,0,0,1-.24,1Z"/><path class="cls-1" d="M274.68,375.52a2.86,2.86,0,0,0,.11-.73,2.63,2.63,0,0,0-1.48-2.35c1.67-2.26,4.95-3.79,8.73-3.79,5.32,0,9.65,3.05,9.87,6.87Z"/><path class="cls-1" d="M140.44,148.54h4.05a5.44,5.44,0,0,1,5.44,5.44v4.75a4.74,4.74,0,0,1-4.74,4.74h-5.46a4.74,4.74,0,0,1-4.74-4.74V154a5.44,5.44,0,0,1,5.44-5.44Z" transform="translate(284.94 312) rotate(180)"/><path class="cls-4" d="M173.61,107.6H185a14.16,14.16,0,0,1,14.16,14.16v13.67a0,0,0,0,1,0,0H157.12a0,0,0,0,1,0,0V124.09a16.49,16.49,0,0,1,16.49-16.49Z" transform="translate(356.32 243.02) rotate(-180)"/><path class="cls-4" d="M101.24,107.6h11.43a15.27,15.27,0,0,1,15.27,15.27v12.56a0,0,0,0,1,0,0H85.86a0,0,0,0,1,0,0V123A15.38,15.38,0,0,1,101.24,107.6Z" transform="translate(213.8 243.02) rotate(180)"/><rect class="cls-5" x="187.38" y="112.13" width="11.59" height="1" rx="0.35" transform="translate(273.28 321.41) rotate(-141.24)"/><rect class="cls-5" x="186.91" y="115.32" width="11.59" height="1" rx="0.35" transform="translate(270.44 326.77) rotate(-141.24)"/><rect class="cls-5" x="114.1" y="112.97" width="11.59" height="1" rx="0.35" transform="translate(142.34 277.02) rotate(-141.24)"/><rect class="cls-5" x="113.63" y="116.15" width="11.59" height="1" rx="0.35" transform="translate(139.5 282.38) rotate(-141.24)"/><path class="cls-6" d="M127.88,115.18s8.28-3.52,12.71-2.94S157.06,117,157.06,117v-4.71s-13.61-4-16.47-4.38-12.71,2.4-12.71,2.4Z"/><path class="cls-6" d="M199.2,114.37s11-2.28,16.85-1.9,21.83,3,21.83,3v-3s-18-2.61-21.83-2.84-16.85,1.55-16.85,1.55Z"/><path class="cls-7" d="M130.46,190.2c-.67,0-1.33,0-2-.09V234.6a.71.71,0,0,0,.71.71h11.48a.7.7,0,0,0,.7-.71V186.21C139.49,188.57,135.32,190.2,130.46,190.2Z"/><path class="cls-7" d="M154.48,190.2c.67,0,1.33,0,2-.09V234.6a.71.71,0,0,1-.71.71H144.26a.7.7,0,0,1-.7-.71V186.21C145.45,188.57,149.62,190.2,154.48,190.2Z"/><polygon class="cls-8" points="55.41 262.93 70.49 259.96 78.44 252.82 60.7 212.51 55.41 214.66 55.41 232.02 52.13 237.72 55.41 262.93"/><polygon class="cls-9" points="54.08 215.15 50.12 216.28 32.83 226.63 24.9 220.25 24.9 218.13 29.01 217.13 32.83 217.84 47.42 208.21 43.2 196.88 24.9 195.03 17.11 192.67 17.11 178.18 25.47 179.59 32.13 180.3 37.79 179.73 37.23 178.18 52.13 173.22 60.88 203.11 60.88 207.64 60.7 212.51 54.08 215.15"/><polygon class="cls-9" points="44.2 210.35 41.81 212.13 35.83 196.78 40.02 196.2 44.78 196.74 45.12 197.66 38.88 198.24 42.27 207.23 44.2 210.35"/><polygon class="cls-8" points="52.35 173.95 52.35 171.88 51.26 168.78 44.67 150.94 37.67 129.59 36 129.59 29.25 131.01 24.25 132.18 22 132.93 22.91 138.01 25.75 145.52 36.09 178.95 37.17 178.95 52.35 173.95"/><polygon class="cls-9" points="35.41 129.06 33.69 121.34 30.21 111.68 24.8 109.01 22 108.6 16.71 95.92 15.04 91.09 18.13 89.42 24.25 87.42 22.96 86.45 19.54 86.83 16.29 88.15 14.37 86.45 12.21 85.33 10.7 85.92 10.7 87.75 9.03 88.92 9.03 91.75 12.62 92.25 13.54 95.26 14.54 100 15.04 104.76 16.37 109.6 18.79 117.1 20.79 123.87 24.25 132.18 29.25 131.01 26.96 123.87 25.38 119.35 23.88 115.31 23.38 113.35 23.8 112.52 25.86 112.27 27.38 115.85 28.83 120.44 30.8 125.77 32.19 130.39 35.64 129.67 35.41 129.06"/><path class="cls-10" d="M117.06,87.8a41.54,41.54,0,0,1,13.42,2.52L130,94.24a41.4,41.4,0,0,0-12.36-2.42c-5.72-.13-13.08,1.37-15.6,9.33l-1.9-2C103,90.12,110.33,87.8,117.06,87.8Z"/><path class="cls-10" d="M185.34,87.8a41.47,41.47,0,0,1,13.42,2.52l-.46,3.92a41.4,41.4,0,0,0-12.36-2.42c-5.72-.13-13.08,1.37-15.6,9.33l-1.9-2C171.3,90.12,178.61,87.8,185.34,87.8Z"/></svg>
