<svg id="Layer_1" data-name="Layer 1" xmlns="http://www.w3.org/2000/svg" width="320" height="390" viewBox="0 0 320 390"><defs><style>.cls-1{fill:#604302;}.cls-2{fill:#bc7a11;}.cls-3{fill:#e1b991;}.cls-4{fill:#adceee;}.cls-5{fill:#8ea2b2;}.cls-6{fill:#3c3c3b;}.cls-7{fill:#fff;}.cls-8{fill:#9a191a;}.cls-9{fill:#c93231;}.cls-10{fill:#7eb7c8;}.cls-11{fill:#e9eaeb;}.cls-12{fill:#036468;}.cls-13{fill:#fbfdfd;}.cls-14{fill:#046067;}.cls-15{fill:#00535b;}.cls-16{fill:#010202;}</style></defs><path class="cls-1" d="M71.18,272.83l13.13-2.08c16.36-2.3,31.57-16.69,36.44-23.28,14.52-19.63-23.34-38-23.34-38l-4.28,5.64a29.71,29.71,0,0,1-23.72,11.74l-42.1,0h0c-.13,0-.25,0-.38,0H22.11c-3.75,0-6.81,2.53-6.81,5.63v4c0,3.09,3.06,5.63,6.81,5.63-3.75,0-6.81,2.53-6.81,5.63v4.13c0,3.1,3.06,5.63,6.81,5.63-3.75,0-6.81,2.54-6.81,5.64v4c0,3.09,3.06,5.63,6.81,5.63h4.82c.13,0,.25,0,.38,0v.21ZM27.31,242V242c-.13,0-.25,0-.38,0C27.06,242,27.18,242,27.31,242Zm-.38,15.42c.13,0,.25,0,.38,0v.07C27.18,257.43,27.06,257.4,26.93,257.4Z"/><path class="cls-2" d="M86.39,111.57a105.62,105.62,0,0,1,211,0h.13V379H86.26V111.57Z"/><circle class="cls-3" cx="188.47" cy="141.81" r="2.64"/><circle class="cls-3" cx="175.05" cy="149.39" r="2.64"/><circle class="cls-3" cx="197.79" cy="157.08" r="2.64"/><circle class="cls-3" cx="112.43" cy="143.04" r="2.64"/><circle class="cls-3" cx="101.97" cy="154.67" r="2.64"/><circle class="cls-3" cx="122.93" cy="166.67" r="2.64"/><path class="cls-1" d="M251.22,229l2.08-13.12c2.3-16.36,16.69-31.58,23.28-36.45,19.63-14.51,20.52-14.66,20.52-14.66l.15,108.1h0c0,.13,0,.25,0,.39V278c0,3.75-2.53,6.82-5.63,6.82h-4c-3.1,0-5.63-3.07-5.63-6.82,0,3.75-2.53,6.82-5.63,6.82h-4.13c-3.1,0-5.64-3.07-5.64-6.82,0,3.75-2.53,6.82-5.63,6.82h-4c-3.1,0-5.63-3.07-5.63-6.82v-4.81c0-.14,0-.26,0-.39h-.21Zm30.85,43.87H282c0,.13,0,.25,0,.39C282,273.09,282.07,273,282.07,272.84Zm-15.43.39c0-.14,0-.26,0-.39h-.07C266.62,273,266.64,273.09,266.64,273.23Z"/><path class="cls-1" d="M297.52,379a7.35,7.35,0,0,1-.54-2.74,7.46,7.46,0,1,1,14.92,0,7.35,7.35,0,0,1-.54,2.74Z"/><path class="cls-1" d="M105.51,379a7.55,7.55,0,0,1-.53-2.74,7.46,7.46,0,1,1,14.91,0,7.35,7.35,0,0,1-.54,2.74Z"/><path class="cls-1" d="M83.56,379a11.46,11.46,0,1,1,21.26,0Z"/><path class="cls-1" d="M216.78,379a2.6,2.6,0,0,1-.2-1,2.75,2.75,0,0,1,5.5,0,2.6,2.6,0,0,1-.2,1Z"/><path class="cls-1" d="M157.37,379a2.6,2.6,0,0,1-.2-1,2.75,2.75,0,0,1,5.5,0,2.6,2.6,0,0,1-.2,1Z"/><path class="cls-1" d="M272.84,379a2.2,2.2,0,0,1-.26-1c0-1.52,1.58-2.75,3.52-2.75s3.52,1.23,3.52,2.75a2.2,2.2,0,0,1-.26,1Z"/><path class="cls-1" d="M279,379a2.67,2.67,0,0,0,.12-.75,2.74,2.74,0,0,0-1.53-2.45c1.73-2.35,5.14-3.94,9.06-3.94,5.53,0,10,3.17,10.26,7.14Z"/><path class="cls-1" d="M141.58,143h0a7.76,7.76,0,0,1,7.76,7.76v1a6.76,6.76,0,0,1-6.76,6.76h-2a6.76,6.76,0,0,1-6.76-6.76v-1A7.76,7.76,0,0,1,141.58,143Z" transform="translate(283.16 301.6) rotate(180)"/><path class="cls-4" d="M180.34,100.48h0a20.21,20.21,0,0,1,20.21,20.21v8.72a0,0,0,0,1,0,0H156.81a0,0,0,0,1,0,0V124A23.53,23.53,0,0,1,180.34,100.48Z" transform="translate(357.36 229.9) rotate(180)"/><path class="cls-4" d="M104.69,100.48h0a21.79,21.79,0,0,1,21.79,21.79v7.14a0,0,0,0,1,0,0H82.73a0,0,0,0,1,0,0v-7A22,22,0,0,1,104.69,100.48Z" transform="translate(209.21 229.9) rotate(180)"/><rect class="cls-5" x="188.26" y="105.2" width="12.05" height="1.04" rx="0.35" transform="translate(279.59 309.8) rotate(-141.24)"/><rect class="cls-5" x="187.77" y="108.51" width="12.05" height="1.04" rx="0.35" transform="translate(276.64 315.38) rotate(-141.24)"/><rect class="cls-5" x="112.09" y="106.07" width="12.05" height="1.04" rx="0.35" transform="translate(143.48 263.65) rotate(-141.24)"/><rect class="cls-5" x="111.6" y="109.38" width="12.05" height="1.04" rx="0.35" transform="translate(140.53 269.23) rotate(-141.24)"/><path class="cls-6" d="M126.42,108.36s8.6-3.65,13.21-3,17.11,4.9,17.11,4.9v-4.9s-14.14-4.18-17.11-4.55-13.21,2.49-13.21,2.49Z"/><path class="cls-6" d="M200.55,107.53s11.4-2.37,17.52-2,22.69,3.17,22.69,3.17v-3.17s-18.75-2.71-22.69-3-17.52,1.61-17.52,1.61Z"/><path class="cls-7" d="M129.1,186.35c-.7,0-1.38,0-2-.09v46.25a.73.73,0,0,0,.73.73h11.93a.74.74,0,0,0,.74-.73V182.2C138.48,184.65,134.14,186.35,129.1,186.35Z"/><path class="cls-7" d="M154.06,186.35c.7,0,1.38,0,2.05-.09v46.25a.74.74,0,0,1-.74.73H143.44a.73.73,0,0,1-.73-.73V182.2C144.67,184.65,149,186.35,154.06,186.35Z"/><circle class="cls-8" cx="37.22" cy="183.42" r="29.12"/><circle class="cls-9" cx="37.22" cy="183.42" r="26.98"/><circle class="cls-10" cx="37.22" cy="183.42" r="22.09"/><rect class="cls-11" x="34.46" y="212.54" width="5.79" height="11.23"/><rect class="cls-12" x="32.3" y="223.77" width="9.55" height="2.98"/><path class="cls-13" d="M39.26,164.67s1.06.34,1,1a2.07,2.07,0,0,1-.69,1.11H38l-2.74.38-2.71.8-1.94,1-1.83,1.18-1.95,1.72-1.72,2L23.81,176l-1,2.21-.65,2.51-.3,2.06v1.53s-.31.76-1,.72a1.74,1.74,0,0,1-1.1-.57v-2.48l.3-1.48.27-1.57.57-1.83L22,174.83l1.41-2.31,1.87-2.09,2.13-2L29.72,167l2.44-1.14,2.52-.84,1.76-.28,1.59-.06Z"/><path class="cls-14" d="M32.68,272.83h9s-2.84,2.85-4.51,2.85S32.68,272.83,32.68,272.83Z"/><path class="cls-15" d="M38.54,279.13a6.84,6.84,0,0,0,2.1-1.07A6.35,6.35,0,0,0,42,276.11a29.25,29.25,0,0,0,.18-3.28h-.44s-3.1,3-4.51,2.85-4.5-2.85-4.5-2.85a10.29,10.29,0,0,0,0,2.85,4.23,4.23,0,0,0,1.75,2.53,4.45,4.45,0,0,0,1.34.86A7,7,0,0,0,38.54,279.13Z"/><path class="cls-16" d="M112.68,86.25a50.61,50.61,0,0,1,12,1.59l-.4,2.48a50.94,50.94,0,0,0-11-1.53c-5.11-.09-11.69.87-13.94,5.9l-1.7-1.26C100.14,87.71,106.67,86.25,112.68,86.25Z"/><path class="cls-16" d="M174,83.93a50.71,50.71,0,0,1,12,1.59L185.55,88a50.68,50.68,0,0,0-11.05-1.53c-5.1-.08-11.68.87-13.93,5.9l-1.7-1.26C161.42,85.39,168,83.93,174,83.93Z"/></svg>
