<svg id="Layer_1" data-name="Layer 1" xmlns="http://www.w3.org/2000/svg" width="1653" height="2079" viewBox="0 0 1653 2079"><defs><style>.cls-1{fill:#cfe0ec;}.cls-2{fill:#6c9401;}.cls-3{fill:#80b002;}.cls-4{fill:#fff;}.cls-5{fill:#803807;}.cls-6{fill:#f08f1e;}.cls-7{fill:#423f40;}.cls-8{fill:#7cbf36;}.cls-9{fill:#353b42;}</style></defs><ellipse class="cls-1" cx="836" cy="1249" rx="338" ry="57"/><ellipse class="cls-2" cx="825" cy="657" rx="362" ry="467"/><ellipse class="cls-3" cx="825" cy="625.5" rx="362" ry="435.5"/><ellipse class="cls-4" cx="661.1" cy="324.4" rx="84.63" ry="37.12" transform="translate(-35.76 562.48) rotate(-45)"/><ellipse class="cls-4" cx="552" cy="447" rx="33.94" ry="26.87" transform="translate(-154.4 521.25) rotate(-45)"/><ellipse class="cls-5" cx="800.5" cy="204" rx="40.5" ry="12" transform="translate(-14.12 66.88) rotate(-4.74)"/><path class="cls-6" d="M804,197l-13,1S790,18,804,11c0,0,14-8.5,20.5,5.25C824.5,16.25,805,123,804,197Z"/><circle class="cls-4" cx="1024" cy="820" r="50"/><circle class="cls-7" cx="1024" cy="820" r="38"/><ellipse class="cls-4" cx="1013.5" cy="804" rx="13.5" ry="10" transform="translate(-280.14 794.24) rotate(-37.99)"/><ellipse class="cls-4" cx="1039.81" cy="836.25" rx="5.71" ry="4.23" transform="translate(-294.41 817.27) rotate(-37.99)"/><circle class="cls-4" cx="645" cy="838" r="50"/><circle class="cls-7" cx="645" cy="838" r="38"/><ellipse class="cls-4" cx="634.5" cy="822" rx="13.5" ry="10" transform="translate(-371.53 564.76) rotate(-37.99)"/><ellipse class="cls-4" cx="660.81" cy="854.25" rx="5.71" ry="4.23" transform="translate(-385.81 587.79) rotate(-37.99)"/><path class="cls-7" d="M817,859s20,21,38-2c0,0,10-2,7,7,0,0-24,31-52,2C810,866,808,857,817,859Z"/><path class="cls-2" d="M903,1249s27.57-45.13,39.29-150.06l19.56-9.46s-9,101.35-29.43,143.93c0,0,56.35-12.41,60,15.59Z"/><path class="cls-2" d="M695,1249s42.57-121,43.29-138.49l-19-6.73L677,1235s-58.2-16-60.1,14Z"/><path class="cls-2" d="M493,1097s51.7-58.87,72.85-113.93l14,17.53S520,1121,457,1151c0,0-14,5-6-11l30-21s-69-3-89-9c0,0-11-9,3-12,0,0,51,9,60,8,0,0-61-21-61-23,0,0-6-2-3-9,0,0,2-3,8-2l46,18-44-30s-5-14,9-9c0,0,49,34,51,34l-42-41s-6-11,8-9Z"/><path class="cls-2" d="M1235,844s-14-14,7-46c0,0-2.14-13.21-11.57-4.6,0,0-25.43,38.6-1.43,62.6,0,0-51.08,214.38-109.54,72.69l-11.72,20s61.76,154.55,140.51-81L1250,862s48,9,91-4c0,0,7-11-7-11,0,0-35,7-37,5,0,0,43-11,46-15,0,0,8-10-6-11,0,0-23,11-30,11,0,0,30-18,30-20,0,0,4-11-8-8,0,0-32,20-35,20,0,0,30-24,32-31,0,0,4-15-11-6C1315,792,1280,837,1235,844Z"/><path class="cls-8" d="M1319,319S1184,3,842,121C842,121,1201,288,1319,319Z"/><path class="cls-9" d="M1257,263S986.54,51.1,808.27,131.05C808.27,131.05,1005,72,1257,263Z"/><path class="cls-3" d="M486.36,1782.42q5.4,53.73-17.34,93.7-25.25,45.14-76.73,50.3-14.55,1.47-31.9-2.44-38.52-8.19-57.52-36-16.37-24-20.64-66.52-5.55-55.22,16.7-100.05,25.6-52.69,77.84-57.95,45.9-4.62,77.45,35.55Q481.45,1733.54,486.36,1782.42Zm-36.16.24q-7.8-77.61-59.34-87.88a44,44,0,0,0-12.09-.29q-20.91,2.1-39.92,22.86-30.17,33.56-22.36,111.17.7,7.1,5,19.47,9.24,28.11,23.2,39.51,16.05,13.45,44,10.64,38.07-3.83,53.75-42.71Q454.43,1824.82,450.2,1782.66Z"/><path class="cls-3" d="M599.76,1891.39a14.56,14.56,0,0,1-4.27,11.92,18.65,18.65,0,0,1-12,5.92Q560,1911.6,553.77,1850q-2.82-28-7.89-84T538,1682a110.27,110.27,0,0,0-2.43-13,110.74,110.74,0,0,1-2.4-12.57q11.49-9.45,18.58-10.16a26.46,26.46,0,0,1,16.21,3.83q8,4.66,8.84,12.87a32,32,0,0,1-.89,9.89c-1.15,6.14-1.82,9.48-2,10q-2.53,23.63,1.75,66.16,6.79,67.53,7,69.4,5.85,46.89,14.44,64.88A26.57,26.57,0,0,1,599.76,1891.39Z"/><path class="cls-3" d="M676,1697.66a17.61,17.61,0,0,1-4.25,14,19.54,19.54,0,0,1-13.28,6.61,28.58,28.58,0,0,1-18.77-4.89q-9.06-5.88-10-15.58a17.34,17.34,0,0,1,4.43-14,20.73,20.73,0,0,1,13.84-6.67,27.31,27.31,0,0,1,18.57,4.73A20.77,20.77,0,0,1,676,1697.66Zm1.9,52.58q.68,6.71-1.08,19.33t-1.07,19.33l7.73,76.86q.72,7.1,6.73,21.94-4.78,9.15-11.57,9.83-23.73,2.38-28.36-20.89-8.13-43.29-10.33-65.3-3.72-36.93-3.25-62.24c-.12-1.24-.25-2.48-.37-3.73q-.67-6.7,9.67-7.75a49.32,49.32,0,0,1,18.87,1.87C673,1741.44,677.34,1745,677.87,1750.24Z"/><path class="cls-3" d="M855.35,1735.53q2.71,26.87-8.9,83.81-13.77,65.46-32.8,67.37-27.24,2.74-53.87-48.48-16.41-31.89-29.08-75.47a106.08,106.08,0,0,1-3.55-16.6q-.6-6,4.34-11.18t10.91-5.81q7.08-.7,23.1,8.61a52.4,52.4,0,0,0-1.15,14.81q2,20.16,15.18,51.62t26.37,46.72l.11,1.12q13.63-1.36,16.09-52.88a425.55,425.55,0,0,0-1.07-64q-.57-5.6,4.74-10.27t10.84-5.24Q853.59,1718,855.35,1735.53Z"/><path class="cls-3" d="M1040.54,1831.19q1.88,18.66-22.45,31.65a107.31,107.31,0,0,1-40.59,12.37q-57.46,5.79-64-59.51-2.72-26.87,7-61,12-41.93,34.75-44.2,20.52-2.07,46.06,13.83t27.52,35.68q2.48,24.63-18.08,41.39-18.09,15-44.95,17.71-5.24.53-17.43-4.65,5.05,35.29,24.46,33.34,16.41-1.65,31.34-12.57t19.39-11.37Q1039.64,1822.23,1040.54,1831.19Zm-47.76-66.43a32.38,32.38,0,0,0-7.2-17.18q-6.26-7.86-15.2-6.95-12.32,1.23-18,12.73-4.65,9.9-3.38,22.58a15.12,15.12,0,0,0,6,11.08,17.54,17.54,0,0,0,12.77,3.24Q995.06,1787.52,992.78,1764.76Z"/><path class="cls-3" d="M1135.76,1605.59c.2,2-.91,4-3.34,6.17s-4.63,3.3-6.62,3.5c-.5,0-1.38,1.21-2.66,3.47a17.17,17.17,0,0,1-3,4.25q-9.72,19.45-3.76,78.77,9.39,93.29,24.25,125,.51,1.45,9.15,16,6.87,12.12,7.1,14.36.83,8.21-5.07,13.32a24.73,24.73,0,0,1-14.1,5.94q-12.32,1.25-25.24-29.87-21.75-51.33-28-114-3.42-33.95,1.82-83.1,6.6-65.48,26.38-67.48,9.33-.93,15.73,6.53A30.42,30.42,0,0,1,1135.76,1605.59Z"/><path class="cls-3" d="M1298.47,1713.71a71.53,71.53,0,0,1,.08,8.29q-6.72,12-15.3,12.84-7.08.72-13.51-6.93-2.43-16.73-13.62-15.59-6.72.67-12.86,37.09-2.9,16.13-.09,44.11,2.67,26.49,5.67,31.84c2.33,4.54,3.59,7.69,3.76,9.42.43,4.24-1.14,7.84-4.7,10.84a22.13,22.13,0,0,1-12.35,5.2q-20,2-21.83-16.65a20.81,20.81,0,0,1,.41-5.32,21.17,21.17,0,0,0,.44-4.94q-1.9-19-7.55-56.34t-7.51-56q-1.69-16.78,18.46-18.81,11.94-1.2,17.13,5.43,9.29-12.6,22.34-13.93a33.45,33.45,0,0,1,17.65,3.13q5.91,2.43,14.36,11.56T1298.47,1713.71Z"/><path class="cls-3" d="M1420.85,1709.46q6.17,61.18-8.63,112.8-7,24.08-18.57,25.23-6.7.69-14.51-3.81c-5.21-3-8-6.6-8.44-10.84a9.59,9.59,0,0,1,2.81-7.63q3.23-3.53,8.89-10.88,13.08-23.55,7.65-77.66a714.13,714.13,0,0,0-11.2-73.87q-11.19-51.25-24.36-62.38c0-.24-2.44-1.76-7.24-4.54-3.21-1.94-4.91-3.78-5.08-5.52a22.09,22.09,0,0,1,4.39-16.28,19.77,19.77,0,0,1,14.29-7.84,34.2,34.2,0,0,1,10.22.48q19.86,17.61,34.59,66.62A408,408,0,0,1,1420.85,1709.46Z"/><path class="cls-3" d="M257.31,1396.83c.13,1.34-.76,2.94-2.69,4.79s-3,3.17-3.22,3.94q-4.71,11.57-1,43.75l1.1,8.71a5,5,0,0,1,1.54-.38c2.24-.23,4.5.83,6.77,3.16a12.08,12.08,0,0,1,3.76,7.09q.27,2.68-3.87,4.23l-6.58,2q1.28,10.5,2.59,21.22,1.81,13.62,4.95,20.08c1.57,3.61,2.42,6,2.54,7.21a12,12,0,0,1-2.54,8.51,10.37,10.37,0,0,1-7.46,4.48q-8.52.85-12.1-7.83-.63-1.74-3.59-15.47-.94-4.87-1.64-11.82l-.92-9.18a122.69,122.69,0,0,0-2.63-14.88,211.49,211.49,0,0,0-30.51,6.91l-30.09,8.9q1.19,2.82,3.33,24.09,1.71,17,7.4,21.87a4.43,4.43,0,0,1,.9,2.17q.58,5.82-8.37,6.72-8.29.84-13.5-3.84-3.24-2.83-10.28-46a10,10,0,0,1-7.24-4.48,17.57,17.57,0,0,1-3.36-8.7c-.18-1.79.66-3.12,2.54-4s3.67-1.69,5.4-2.47c0-2-.1-5.49-.16-10.61q0-6.55-.36-10.36-4-39.4-.79-50.58,2.7-9.09,11.43-10a16.74,16.74,0,0,1,10.43,2.46q5,3,5.56,8.15a17.45,17.45,0,0,1-1.11,6.89q-1.92,5.63-2.06,6.54-4.16,19.41-1.54,45.38c.29,2.84.46,4.56.52,5.15q2-.42,10.34-2.85a251.36,251.36,0,0,1,49.16-10.37q-2.64-33-2.49-42.71.57-32.62,12.21-33.79a14.39,14.39,0,0,1,12,4.11A18.43,18.43,0,0,1,257.31,1396.83Z"/><path class="cls-3" d="M322,1412.81a10.57,10.57,0,0,1-2.55,8.4,11.74,11.74,0,0,1-8,4,17.13,17.13,0,0,1-11.26-2.94,12.25,12.25,0,0,1-6-9.34,10.43,10.43,0,0,1,2.66-8.41,12.42,12.42,0,0,1,8.3-4,16.39,16.39,0,0,1,11.14,2.83A12.49,12.49,0,0,1,322,1412.81Zm1.13,31.55a51.93,51.93,0,0,1-.64,11.6,52.44,52.44,0,0,0-.64,11.59l4.64,46.12q.42,4.26,4,13.16-2.87,5.49-6.94,5.9-14.24,1.44-17-12.53-4.86-26-6.2-39.18a324,324,0,0,1-1.94-37.34c-.08-.75-.15-1.49-.23-2.24q-.41-4,5.81-4.66a29.68,29.68,0,0,1,11.32,1.13C320.18,1439.08,322.79,1441.22,323.1,1444.36Z"/><path class="cls-3" d="M361,1518.21q-.51-5.14,3.67-9.64a15.75,15.75,0,0,1,10.23-5.1q6.48-.65,11.78,4.7t6.16,14.08a55.72,55.72,0,0,1-.24,15.62,34.53,34.53,0,0,1-5.09,12.27,51.29,51.29,0,0,1-9.08,11q-5.18,4.71-9.65,5.15a7.26,7.26,0,0,1-5.55-2.26c-1.27-1.46-1.2-3.31.24-5.57a43.88,43.88,0,0,0,7.78-6.89,20.83,20.83,0,0,0,4.79-9.75,16,16,0,0,0,.1-6.91c-.48-2.44-2.06-4.35-4.76-5.74a48.09,48.09,0,0,1-7-4.27A9,9,0,0,1,361,1518.21Z"/><path class="cls-3" d="M525.67,1433.37q.6,6-17.51,10.36,0,5,1.81,22.43l1.48,14.77a95.17,95.17,0,0,0,2.67,13.08,92.59,92.59,0,0,1,2.65,12.85c.24,2.39-.74,4.63-2.94,6.74a11.65,11.65,0,0,1-6.88,3.52q-5.59.56-10.37-8.69a39.14,39.14,0,0,1-4.35-14l-4.77-47.46q-10.45-.53-12.07-.82-6-1.21-6.34-4.57a5.61,5.61,0,0,1,.24-2.06q5-8.87,12.16-9.59l1.34-.13a6.15,6.15,0,0,0,1.37.09q4.69-.48,3.37-11.42l-1.64-16.34a10.57,10.57,0,0,1-1.55-4.14c-.19-1.94.77-3.81,2.91-5.61a11.73,11.73,0,0,1,6.3-3q4.65-.46,9.31,3.47t5.15,8.87a35.14,35.14,0,0,1-.61,10.8,31.54,31.54,0,0,0-.37,11l.09.89Q524.78,1424.43,525.67,1433.37Z"/><path class="cls-3" d="M636.3,1508.48a15.19,15.19,0,0,1-10.76,5.38q-4.71.48-10.22-4.85l-3.06-30.45q-5-49.69-19.33-48.26-14.77,1.48-10.74,41.56c.15,1.5.37,3.66.65,6.5s.51,5,.66,6.49a68,68,0,0,0,2.14,10.07,69.65,69.65,0,0,1,2.14,10.08q.3,2.91-2.94,5.61a11.73,11.73,0,0,1-6.14,3,12.16,12.16,0,0,1-10-3.64,15.39,15.39,0,0,1-4.94-9.81l-12.14-129.67q-.06-.68-.18-1.8l-.15-1.57q-.82-8.07,8.14-9,4.24-.42,10.25,2.94t6.39,7.42a74.81,74.81,0,0,1-.65,14.82,74.21,74.21,0,0,0-.66,14.82q.63,6.28,2.46,19.95c3.08-2.27,5.75-3.52,8-3.74a50.23,50.23,0,0,1,19.45,2.34q13.77,4.26,20.18,16.28,4.75,9,6.42,25.59Z"/><path class="cls-3" d="M738.21,1476.54q1.13,11.2-13.47,19a64.72,64.72,0,0,1-24.36,7.42q-34.47,3.46-38.41-35.71-1.62-16.12,4.23-36.61,7.2-25.14,20.85-26.52,12.32-1.23,27.63,8.3t16.52,21.41q1.49,14.78-10.85,24.83-10.86,9-27,10.63-3.14.32-10.46-2.79,3,21.18,14.68,20a38,38,0,0,0,18.8-7.55q9-6.54,11.64-6.82Q737.66,1471.17,738.21,1476.54Zm-28.66-39.85a19.48,19.48,0,0,0-4.32-10.31q-3.75-4.71-9.12-4.17a12.77,12.77,0,0,0-10.77,7.64,25.34,25.34,0,0,0-2,13.54,9.07,9.07,0,0,0,3.61,6.65,10.5,10.5,0,0,0,7.66,2Q710.92,1450.34,709.55,1436.69Z"/><path class="cls-3" d="M822.12,1411.94a41.24,41.24,0,0,1,0,5q-4,7.2-9.17,7.71-4.26.44-8.11-4.16-1.47-10-8.18-9.35-4,.4-7.71,22.26-1.74,9.66,0,26.46,1.59,15.9,3.4,19.1a20,20,0,0,1,2.25,5.66,7.18,7.18,0,0,1-2.81,6.5,13.31,13.31,0,0,1-7.42,3.12q-12,1.2-13.1-10a12.91,12.91,0,0,1,.25-3.19,12.51,12.51,0,0,0,.27-3q-1.15-11.41-4.53-33.8t-4.51-33.58q-1-10.08,11.08-11.29,7.15-.72,10.27,3.26,5.58-7.56,13.41-8.36a20.06,20.06,0,0,1,10.59,1.88q3.54,1.46,8.61,6.93T822.12,1411.94Z"/><path class="cls-3" d="M933.69,1460.33q1.13,11.19-13.47,19a64.49,64.49,0,0,1-24.35,7.42q-34.49,3.46-38.42-35.71-1.62-16.11,4.24-36.6,7.18-25.15,20.85-26.52,12.3-1.25,27.63,8.3t16.51,21.4q1.49,14.78-10.84,24.84-10.86,9-27,10.63-3.14.32-10.45-2.8,3,21.18,14.67,20a37.92,37.92,0,0,0,18.8-7.54q9-6.55,11.64-6.83C929.94,1455.28,933.33,1456.74,933.69,1460.33ZM905,1420.47a19.39,19.39,0,0,0-4.31-10.31q-3.76-4.71-9.13-4.17a12.79,12.79,0,0,0-10.76,7.64,25.28,25.28,0,0,0-2,13.55,9,9,0,0,0,3.6,6.64,10.52,10.52,0,0,0,7.66,2Q906.41,1434.12,905,1420.47Z"/><path class="cls-3" d="M1006,1459.88q1.71,17-17.76,19-3.59.36-14.09-2.88a19.74,19.74,0,0,1-3.63-9.13q-1.31-13,14.59-14.58a34.36,34.36,0,0,1,12.09,1Q1005.53,1455.4,1006,1459.88Zm-6.32-128a6.33,6.33,0,0,1-.78,3.47c-.88,1.75-1.44,2.86-1.7,3.34q-3.87,13.27-4.34,33.23-.44,7,0,33.92a30.57,30.57,0,0,1-.12,4.42,32.52,32.52,0,0,0-.05,5.09,66,66,0,0,0,4,15.2,52.77,52.77,0,0,1-4,5.38,20.87,20.87,0,0,1-5.31,1.21,16.11,16.11,0,0,1-8.51-1.41q-4-5.93-5-15.78-1-10.29,1.07-31t1.07-31a78,78,0,0,0-2.68-12,76.83,76.83,0,0,1-2.68-12.06,14.25,14.25,0,0,1,.06-3.85,20.6,20.6,0,0,1,13.18-6.07,21.69,21.69,0,0,1,9.63,1.29Q999.23,1327.59,999.65,1331.84Z"/><path class="cls-3" d="M640.43,1559.41a8.58,8.58,0,0,1-.84,2.85,23.3,23.3,0,0,0-.44,5.7q.2,28.13,2.31,49.14a32.17,32.17,0,0,0,1.88,8.73,44.7,44.7,0,0,0,4.4,7.47,2.09,2.09,0,0,1,.2.74c.17,1.74-1.77,2.81-5.84,3.22l-1.12.12q-6.35.51-8.73-9.43-3-12.14-5.16-33.78-.51-5.1-1.36-15.38t-1.37-15.5q-.29-2.86,2.44-5.77a9,9,0,0,1,5.58-3.2,8.58,8.58,0,0,1,5,1.38C639.29,1556.77,640.29,1558,640.43,1559.41Z"/><path class="cls-3" d="M657.35,1560.43a6.71,6.71,0,0,1,2-5.36,8.75,8.75,0,0,1,5.68-2.83,7.84,7.84,0,0,1,6.55,2.61,12.48,12.48,0,0,1,3.42,7.82,30.94,30.94,0,0,1-.13,8.68,19.1,19.1,0,0,1-2.83,6.82,29,29,0,0,1-5,6.1,9.87,9.87,0,0,1-5.37,2.86,4,4,0,0,1-3.08-1.26c-.71-.81-.66-1.84.13-3.09a24,24,0,0,0,4.33-3.83,11.68,11.68,0,0,0,2.66-5.41,9,9,0,0,0,0-3.84,4.53,4.53,0,0,0-2.64-3.19,26.44,26.44,0,0,1-3.89-2.38A5,5,0,0,1,657.35,1560.43Z"/><path class="cls-3" d="M758.76,1627.1c-2.61,2-4.66,3.11-6.13,3.26a12.52,12.52,0,0,1-5.1-1.25c-.13-1.32-.36-3.61-.69-6.84q-.44-4.35-.68-6.84-3.33-33.08-8.75-32.54-4.08.42-5.52,10.73a56,56,0,0,0-.49,13.75l1.15,11.44a8.07,8.07,0,0,0,.88,2.48,8.19,8.19,0,0,1,.88,2.49,4.46,4.46,0,0,1-1.76,3.76,7.05,7.05,0,0,1-3.95,2,7.57,7.57,0,0,1-7-5.58l-2.32-23.14q-1.42-14.05-4.58-13.73-.51,0-1.92,2.58-7.78,12.84-6.41,26.52a44.07,44.07,0,0,0,1.15,5.73,43.06,43.06,0,0,1,1.12,5.6,5.68,5.68,0,0,1-1.14,4.26,5.36,5.36,0,0,1-3.88,2,5.8,5.8,0,0,1-4.8-1.52c-.47-.54-1.17-2.43-2.08-5.68a49.23,49.23,0,0,1-1.38-6.25l-2.72-27.06a29.45,29.45,0,0,1,.69-8.09c.85-4.09,2-6.21,3.38-6.36a6.4,6.4,0,0,1,4.67,1.45,5.08,5.08,0,0,1,2.18,4.15q3-6.33,8.73-6.91,7.08-.7,12.51,8.29a30.26,30.26,0,0,1,3.46-8.14,9.83,9.83,0,0,1,7.34-4.38q4.61-.46,9.82,3.91,9,7.52,11.07,27.66Z"/></svg>