<svg id="Layer_1" data-name="Layer 1" xmlns="http://www.w3.org/2000/svg" width="1653" height="1334" viewBox="0 0 1653 1334"><defs><style>.cls-1{fill:#cfe0ec;}.cls-2{fill:#6c9401;}.cls-3{fill:#80b002;}.cls-4{fill:#fff;}.cls-5{fill:#803807;}.cls-6{fill:#f08f1e;}.cls-7{fill:#423f40;}.cls-8{fill:#7cbf36;}.cls-9{fill:#353b42;}</style></defs><ellipse class="cls-1" cx="838" cy="1249" rx="338" ry="57"/><ellipse class="cls-2" cx="827" cy="657" rx="362" ry="467"/><ellipse class="cls-3" cx="827" cy="625.5" rx="362" ry="435.5"/><ellipse class="cls-4" cx="663.1" cy="324.4" rx="84.63" ry="37.12" transform="translate(-35.17 563.9) rotate(-45)"/><ellipse class="cls-4" cx="554" cy="447" rx="33.94" ry="26.87" transform="translate(-153.81 522.66) rotate(-45)"/><ellipse class="cls-5" cx="802.5" cy="204" rx="40.5" ry="12" transform="translate(-14.12 67.04) rotate(-4.74)"/><path class="cls-6" d="M806,197l-13,1S792,18,806,11c0,0,14-8.5,20.5,5.25C826.5,16.25,807,123,806,197Z"/><circle class="cls-4" cx="1026" cy="820" r="50"/><circle class="cls-7" cx="1026" cy="820" r="38"/><ellipse class="cls-4" cx="1015.5" cy="804" rx="13.5" ry="10" transform="translate(-279.72 795.47) rotate(-37.99)"/><ellipse class="cls-4" cx="1041.81" cy="836.25" rx="5.71" ry="4.23" transform="translate(-293.99 818.5) rotate(-37.99)"/><circle class="cls-4" cx="647" cy="838" r="50"/><circle class="cls-7" cx="647" cy="838" r="38"/><ellipse class="cls-4" cx="636.5" cy="822" rx="13.5" ry="10" transform="translate(-371.11 565.99) rotate(-37.99)"/><ellipse class="cls-4" cx="662.81" cy="854.25" rx="5.71" ry="4.23" transform="translate(-385.38 589.02) rotate(-37.99)"/><path class="cls-7" d="M819,859s20,21,38-2c0,0,10-2,7,7,0,0-24,31-52,2C812,866,810,857,819,859Z"/><path class="cls-2" d="M905,1249s27.57-45.13,39.29-150.06l19.56-9.46s-9,101.35-29.43,143.93c0,0,56.35-12.41,60,15.59Z"/><path class="cls-2" d="M697,1249s42.57-121,43.29-138.49l-19-6.73L679,1235s-58.2-16-60.1,14Z"/><path class="cls-2" d="M495,1097s51.7-58.87,72.85-113.93l14,17.53S522,1121,459,1151c0,0-14,5-6-11l30-21s-69-3-89-9c0,0-11-9,3-12,0,0,51,9,60,8,0,0-61-21-61-23,0,0-6-2-3-9,0,0,2-3,8-2l46,18-44-30s-5-14,9-9c0,0,49,34,51,34l-42-41s-6-11,8-9Z"/><path class="cls-2" d="M1237,844s-14-14,7-46c0,0-2.14-13.21-11.57-4.6,0,0-25.43,38.6-1.43,62.6,0,0-51.08,214.38-109.54,72.69l-11.72,20s61.76,154.55,140.51-81L1252,862s48,9,91-4c0,0,7-11-7-11,0,0-35,7-37,5,0,0,43-11,46-15,0,0,8-10-6-11,0,0-23,11-30,11,0,0,30-18,30-20,0,0,4-11-8-8,0,0-32,20-35,20,0,0,30-24,32-31,0,0,4-15-11-6C1317,792,1282,837,1237,844Z"/><path class="cls-8" d="M1321,319S1186,3,844,121C844,121,1203,288,1321,319Z"/><path class="cls-9" d="M1259,263S988.54,51.1,810.27,131.05C810.27,131.05,1007,72,1259,263Z"/></svg>