<svg id="Layer_1" data-name="Layer 1" xmlns="http://www.w3.org/2000/svg" width="1005.79" height="1006.44" viewBox="0 0 1005.79 1006.44"><defs><style>.cls-1{fill:#f1f1f1;}.cls-2{fill:#fff;}</style></defs><path class="cls-1" d="M935.24,503.23c0,238.77-193.56,432.34-432.34,432.34S70.55,742,70.55,503.23,264.12,70.87,502.9,70.87,935.24,264.43,935.24,503.23Z"/><rect class="cls-2" x="315.72" y="418.17" width="89.14" height="277.2"/><path class="cls-2" d="M359.85,381.88c29.12,0,52.71-22.92,52.71-51.16S389,279.57,359.85,279.57s-52.7,22.91-52.7,51.15S330.74,381.88,359.85,381.88Z"/><path class="cls-2" d="M547.32,549.86c0-39,18.65-62.19,54.32-62.19,32.77,0,48.53,22.29,48.53,62.19V695.37h88.71V519.85c0-74.24-43.72-110.15-104.77-110.15s-86.79,45.81-86.79,45.81V418.17H461.83v277.2h85.49Z"/></svg>
