<svg id="Layer_1" data-name="Layer 1" xmlns="http://www.w3.org/2000/svg" width="1005.79" height="1006.44" viewBox="0 0 1005.79 1006.44"><defs><style>.cls-1{fill:#f1f1f1;}.cls-2{fill:#fff;}</style></defs><path class="cls-1" d="M935.24,503.21c0,238.78-193.57,432.36-432.35,432.36S70.55,742,70.55,503.21,264.12,70.87,502.89,70.87,935.24,264.45,935.24,503.21Z"/><path class="cls-2" d="M503.34,307.35c66.74,0,74.65.25,101,1.45,24.37,1.12,37.6,5.2,46.41,8.62a82.82,82.82,0,0,1,47.44,47.43c3.42,8.82,7.5,22,8.61,46.42,1.2,26.35,1.45,34.26,1.45,101s-.25,74.65-1.45,101c-1.11,24.37-5.19,37.6-8.61,46.42a82.88,82.88,0,0,1-47.44,47.44c-8.81,3.42-22,7.49-46.41,8.61-26.36,1.19-34.26,1.45-101,1.45s-74.65-.26-101-1.45c-24.37-1.12-37.6-5.19-46.41-8.61a83,83,0,0,1-47.43-47.44c-3.43-8.82-7.5-22.05-8.62-46.42-1.2-26.35-1.45-34.26-1.45-101s.25-74.66,1.45-101c1.12-24.37,5.19-37.6,8.62-46.42a82.92,82.92,0,0,1,47.43-47.43c8.81-3.42,22-7.5,46.41-8.62,26.36-1.2,34.27-1.45,101-1.45m0-45c-67.88,0-76.39.28-103,1.51s-44.79,5.44-60.68,11.62a127.85,127.85,0,0,0-73.11,73.11c-6.17,15.89-10.4,34.06-11.61,60.67s-1.51,35.17-1.51,103.06.28,76.39,1.51,103.06,5.44,44.77,11.61,60.67a127.87,127.87,0,0,0,73.11,73.1c15.89,6.18,34.08,10.4,60.68,11.62s35.17,1.5,103,1.5,76.4-.28,103.06-1.5,44.78-5.44,60.68-11.62a127.82,127.82,0,0,0,73.1-73.1c6.19-15.9,10.4-34.07,11.62-60.67s1.5-35.18,1.5-103.06-.29-76.4-1.5-103.06-5.43-44.78-11.62-60.67a127.8,127.8,0,0,0-73.1-73.11C651.18,269.26,633,265,606.4,263.82s-35.17-1.51-103.06-1.51"/><path class="cls-2" d="M503.34,383.92A128.36,128.36,0,1,0,631.69,512.28,128.36,128.36,0,0,0,503.34,383.92m0,211.68a83.32,83.32,0,1,1,83.32-83.32,83.34,83.34,0,0,1-83.32,83.32"/><path class="cls-2" d="M666.77,378.85a30,30,0,1,1-30-30,30,30,0,0,1,30,30"/></svg>
