<svg id="Layer_1" data-name="Layer 1" xmlns="http://www.w3.org/2000/svg" width="1005.79" height="1006.44" viewBox="0 0 1005.79 1006.44"><defs><style>.cls-1{fill:#f1f1f1;}.cls-2{fill:#fff;}</style></defs><path class="cls-1" d="M935.24,503.21c0,238.79-193.57,432.36-432.34,432.36S70.55,742,70.55,503.21,264.11,70.87,502.9,70.87,935.24,264.44,935.24,503.21Z"/><path class="cls-2" d="M260,655.84a282.07,282.07,0,0,0,152.77,44.78c185.05,0,289.59-156.3,283.29-296.48a201.85,201.85,0,0,0,49.73-51.6,199,199,0,0,1-57.24,15.7,99.79,99.79,0,0,0,43.81-55.14,199.71,199.71,0,0,1-63.28,24.2,99.53,99.53,0,0,0-72.76-31.48c-64.33,0-111.61,60-97.07,122.39A282.86,282.86,0,0,1,293.83,324.06a99.79,99.79,0,0,0,30.85,133.08,99.38,99.38,0,0,1-45.17-12.48c-1.07,46.18,32,89.37,79.95,99a99.7,99.7,0,0,1-45,1.7,99.66,99.66,0,0,0,93.08,69.21A200.25,200.25,0,0,1,260,655.84Z"/></svg>
