<svg xmlns="http://www.w3.org/2000/svg" xmlns:xlink="http://www.w3.org/1999/xlink" width="202.87" height="373.28" viewBox="0 0 202.87 373.28"><defs><style>.cls-1{mask:url(#mask);filter:url(#luminosity-noclip-2);}.cls-2{mix-blend-mode:multiply;fill:url(#linear-gradient);}.cls-3{isolation:isolate;}.cls-4{fill:#86b5c6;}.cls-5{fill:#594512;}.cls-6{fill:#a87924;}.cls-7{fill:#d2b48e;}.cls-8{fill:#b3c9e9;}.cls-9{fill:#8f9eac;}.cls-10{fill:#3e3e3d;}.cls-11{fill:#fff;}.cls-12{fill:#812021;}.cls-13{fill:#aa3535;}.cls-14{fill:#8db3c3;}.cls-15{fill:#e5e6e7;}.cls-16{fill:#396368;}.cls-17{fill:#f8fafa;}.cls-18{fill:#376167;}.cls-19{fill:#30545b;}.cls-20{fill:#070909;}.cls-21{fill:#b00027;}.cls-22{mask:url(#mask-2);}.cls-23{opacity:0.2;mix-blend-mode:lighten;fill:url(#linear-gradient-2);}.cls-24{fill:url(#linear-gradient-3);}.cls-25{fill:url(#linear-gradient-4);}.cls-26{fill:url(#linear-gradient-5);}.cls-27{fill:url(#linear-gradient-6);}.cls-28{fill:url(#linear-gradient-7);}.cls-29{fill:url(#linear-gradient-8);}.cls-30{fill:url(#linear-gradient-9);}.cls-31{fill:url(#linear-gradient-10);}.cls-32{fill:url(#linear-gradient-11);}.cls-33{fill:url(#linear-gradient-12);}.cls-34{filter:url(#luminosity-noclip);}</style><filter id="luminosity-noclip" x="10.37" y="-8350.68" width="182.13" height="32766" filterUnits="userSpaceOnUse" color-interpolation-filters="sRGB"><feFlood flood-color="#fff" result="bg"/><feBlend in="SourceGraphic" in2="bg"/></filter><mask id="mask" x="10.37" y="-8350.68" width="182.13" height="32766" maskUnits="userSpaceOnUse"><g class="cls-34"/></mask><linearGradient id="linear-gradient" x1="7.62" y1="353.02" x2="265.99" y2="94.65" gradientUnits="userSpaceOnUse"><stop offset="0.36"/><stop offset="0.54" stop-color="#020202"/><stop offset="0.63" stop-color="#0a0a0a"/><stop offset="0.7" stop-color="#171717"/><stop offset="0.76" stop-color="#292929"/><stop offset="0.81" stop-color="#414141"/><stop offset="0.85" stop-color="#5f5f5f"/><stop offset="0.9" stop-color="#828282"/><stop offset="0.94" stop-color="#ababab"/><stop offset="0.97" stop-color="#d8d8d8"/><stop offset="1" stop-color="#fff"/></linearGradient><filter id="luminosity-noclip-2" x="10.37" y="5.51" width="182.13" height="364.68" filterUnits="userSpaceOnUse" color-interpolation-filters="sRGB"><feFlood flood-color="#fff" result="bg"/><feBlend in="SourceGraphic" in2="bg"/></filter><mask id="mask-2" x="10.37" y="5.51" width="182.13" height="364.68" maskUnits="userSpaceOnUse"><g class="cls-1"><path class="cls-2" d="M192.28,89.83a.67.67,0,0,0-.46-.17.68.68,0,0,0-.68.69V30A24.59,24.59,0,0,0,168.86,5.51L10.37,164V345.6A24.59,24.59,0,0,0,35,370.18H166.55a24.6,24.6,0,0,0,24.59-24.58V130.86a.68.68,0,0,0,1.14.5.65.65,0,0,0,.22-.5V90.35A.69.69,0,0,0,192.28,89.83ZM13.72,349.7v0a.07.07,0,0,0,0,0Zm.34,1.44h0s0,0,0,.06A.12.12,0,0,0,14.06,351.14Zm3.39,7.13,0,0,.12.18A1.91,1.91,0,0,0,17.45,358.27Zm11.93,8.21c.17,0,.34.1.5.13l.18.05C29.82,366.6,29.6,366.55,29.38,366.48Zm1.92.43h.05l.55.09.19,0C31.82,367,31.56,367,31.3,366.91Zm137.88.16h.23Zm15-349.51a.3.3,0,0,1,0-.08,1.27,1.27,0,0,0,.13.19Z"/></g></mask><linearGradient id="linear-gradient-2" x1="7.62" y1="353.02" x2="265.99" y2="94.65" gradientUnits="userSpaceOnUse"><stop offset="0.36" stop-color="#fff"/><stop offset="0.91" stop-color="#fff"/><stop offset="1" stop-color="#fff"/></linearGradient><linearGradient id="linear-gradient-3" x1="11.11" y1="187.8" x2="13.76" y2="187.8" gradientUnits="userSpaceOnUse"><stop offset="0" stop-color="#666"/><stop offset="1"/></linearGradient><linearGradient id="linear-gradient-4" x1="188.23" y1="187.82" x2="190.85" y2="187.82" gradientUnits="userSpaceOnUse"><stop offset="0"/><stop offset="1" stop-color="#666"/></linearGradient><linearGradient id="linear-gradient-5" x1="100.78" y1="369.5" x2="100.78" y2="348.53" gradientUnits="userSpaceOnUse"><stop offset="0" stop-color="#959595"/><stop offset="1"/></linearGradient><linearGradient id="linear-gradient-6" x1="100.78" y1="26.21" x2="100.78" y2="0.03" gradientUnits="userSpaceOnUse"><stop offset="0"/><stop offset="1" stop-color="gray"/></linearGradient><linearGradient id="linear-gradient-7" x1="179.97" y1="187.94" x2="186.34" y2="187.94" gradientUnits="userSpaceOnUse"><stop offset="0" stop-color="#f1f1f1"/><stop offset="0" stop-color="#f0f0f0"/><stop offset="0.14" stop-color="#b7b7b7"/><stop offset="0.27" stop-color="#888"/><stop offset="0.4" stop-color="#636363"/><stop offset="0.51" stop-color="#494949"/><stop offset="0.62" stop-color="#393939"/><stop offset="0.7" stop-color="#333"/></linearGradient><linearGradient id="linear-gradient-8" x1="18.88" y1="355.59" x2="182.69" y2="355.59" gradientUnits="userSpaceOnUse"><stop offset="0" stop-color="#1a1a1a"/><stop offset="0.12" stop-color="#454545"/><stop offset="0.23" stop-color="#666"/><stop offset="0.34" stop-color="#7e7e7e"/><stop offset="0.44" stop-color="#8d8d8d"/><stop offset="0.52" stop-color="#929292"/><stop offset="0.59" stop-color="#8b8b8b"/><stop offset="0.7" stop-color="#767676"/><stop offset="0.82" stop-color="#545454"/><stop offset="0.97" stop-color="#252525"/><stop offset="1" stop-color="#1a1a1a"/></linearGradient><linearGradient id="linear-gradient-9" x1="18.88" y1="20.3" x2="186.36" y2="20.3" xlink:href="#linear-gradient-8"/><linearGradient id="linear-gradient-10" x1="15.22" y1="187.83" x2="19" y2="187.83" gradientUnits="userSpaceOnUse"><stop offset="0" stop-color="#c8c8c8"/><stop offset="0.21" stop-color="#a0a0a0"/><stop offset="0.59" stop-color="#5d5d5d"/><stop offset="0.86" stop-color="#343434"/><stop offset="1" stop-color="#242424"/></linearGradient><linearGradient id="linear-gradient-11" x1="179.95" y1="187.96" x2="186.34" y2="187.96" gradientUnits="userSpaceOnUse"><stop offset="0" stop-color="#242424"/><stop offset="0.14" stop-color="#343434"/><stop offset="0.41" stop-color="#5d5d5d"/><stop offset="0.79" stop-color="#a0a0a0"/><stop offset="1" stop-color="#c8c8c8"/></linearGradient><linearGradient id="linear-gradient-12" x1="89.73" y1="19.43" x2="110.73" y2="19.43" gradientUnits="userSpaceOnUse"><stop offset="0" stop-color="#333"/><stop offset="0.09" stop-color="#2b2b2b"/><stop offset="0.29" stop-color="#1e1e1e"/><stop offset="0.48" stop-color="#1a1a1a"/><stop offset="0.79" stop-color="#1c1c1c"/><stop offset="0.9" stop-color="#232323"/><stop offset="0.98" stop-color="#2e2e2e"/><stop offset="1" stop-color="#333"/></linearGradient></defs><g class="cls-3"><g id="object"><rect class="cls-4" x="19.38" y="16.43" width="162.2" height="343.2"/><path class="cls-5" d="M61.34,272.46l5.36-.85c6.69-.94,12.91-6.82,14.9-9.52,5.93-8-9.54-15.53-9.54-15.53l-1.75,2.31a12.13,12.13,0,0,1-9.7,4.79H41.28A2.59,2.59,0,0,0,38.5,256v1.63a2.58,2.58,0,0,0,2.78,2.3,2.58,2.58,0,0,0-2.78,2.3v1.69a2.58,2.58,0,0,0,2.78,2.3,2.59,2.59,0,0,0-2.78,2.31v1.63a2.58,2.58,0,0,0,2.78,2.3h2.13v.09Zm-17.93-12.6Zm-.16,6.3h.16v0a.34.34,0,0,0-.16,0Z"/><path class="cls-6" d="M67.55,206.55a43.17,43.17,0,0,1,86.25,0h0v109.3H67.5V206.55Z"/><circle class="cls-7" cx="109.28" cy="218.91" r="1.08"/><circle class="cls-7" cx="103.79" cy="222" r="1.08"/><circle class="cls-7" cx="113.09" cy="225.15" r="1.08"/><circle class="cls-7" cx="78.2" cy="219.41" r="1.08"/><circle class="cls-7" cx="73.92" cy="224.16" r="1.08"/><circle class="cls-7" cx="82.49" cy="229.07" r="1.08"/><path class="cls-5" d="M134.93,254.54l.85-5.36c.94-6.69,6.82-12.91,9.51-14.9,8-5.93,8.39-6,8.39-6l.06,44.19h0v2.09a2.59,2.59,0,0,1-2.3,2.79H149.8a2.59,2.59,0,0,1-2.3-2.79,2.59,2.59,0,0,1-2.3,2.79h-1.69a2.59,2.59,0,0,1-2.3-2.79,2.59,2.59,0,0,1-2.3,2.79h-1.64a2.59,2.59,0,0,1-2.3-2.79v-2.12h-.09Zm12.61,17.94h0v.15c0-.07,0-.1,0-.17Zm-6.31.15v-.15h0a.32.32,0,0,1,0,.14Z"/><path class="cls-5" d="M153.85,315.85a3,3,0,1,1,5.88-1.12h0a3,3,0,0,1-.22,1.12Z"/><path class="cls-5" d="M75.37,315.85a3.07,3.07,0,1,1,5.88-1.34v.22a3.24,3.24,0,0,1-.22,1.12Z"/><path class="cls-5" d="M66.4,315.85a4.68,4.68,0,1,1,8.69,0Z"/><path class="cls-5" d="M120.85,315.85a.92.92,0,0,1-.08-.4,1.13,1.13,0,1,1,2.25,0h0a.93.93,0,0,1-.09.4Z"/><path class="cls-5" d="M96.57,315.85a.93.93,0,0,1-.09-.4,1.13,1.13,0,1,1,2.25,0h0a1.1,1.1,0,0,1-.08.4Z"/><path class="cls-5" d="M143.76,315.85a.91.91,0,0,1-.1-.4,1.48,1.48,0,0,1,2.87,0,.79.79,0,0,1-.1.4Z"/><path class="cls-5" d="M146.28,315.85a1,1,0,0,0,.05-.3,1.09,1.09,0,0,0-.63-1,4.62,4.62,0,0,1,3.71-1.61c2.26,0,4.08,1.29,4.19,2.91Z"/><path class="cls-5" d="M90.11,225.77h0a3.17,3.17,0,0,1-3.17-3.17v-.41a2.77,2.77,0,0,1,2.76-2.77h.82a2.76,2.76,0,0,1,2.76,2.77v.41A3.17,3.17,0,0,1,90.11,225.77Z"/><path class="cls-8" d="M104.6,213.84h0a8.26,8.26,0,0,1-8.26-8.26V202h17.88v2.21A9.62,9.62,0,0,1,104.6,213.84Z"/><path class="cls-8" d="M75,213.84h0a8.9,8.9,0,0,1-8.9-8.91h0V202H83.94v2.86A9,9,0,0,1,75,213.84Z"/><rect class="cls-9" x="111.44" y="201.69" width="0.43" height="4.93" rx="0.14" transform="translate(-117.45 163.41) rotate(-51.24)"/><rect class="cls-9" x="111.24" y="203.05" width="0.43" height="4.93" rx="0.14" transform="translate(-118.58 163.75) rotate(-51.24)"/><rect class="cls-9" x="80.31" y="202.05" width="0.43" height="4.93" rx="0.14" transform="translate(-129.36 139.26) rotate(-51.24)"/><rect class="cls-9" x="80.1" y="203.4" width="0.43" height="4.93" rx="0.14" transform="translate(-130.49 139.61) rotate(-51.24)"/><path class="cls-10" d="M83.92,205.23s3.51-1.49,5.39-1.22a63.19,63.19,0,0,1,7,2v-2s-5.78-1.71-7-1.86-5.39,1-5.39,1Z"/><path class="cls-10" d="M114.22,204.89a37.56,37.56,0,0,1,7.16-.81c2.5.15,9.27,1.29,9.27,1.29v-1.29s-7.66-1.11-9.27-1.23a62.75,62.75,0,0,0-7.16.66Z"/><path class="cls-11" d="M85,237.11a5.43,5.43,0,0,1-.82,0V256a.31.31,0,0,0,.3.3h4.88a.31.31,0,0,0,.3-.3V235.41A6.16,6.16,0,0,1,85,237.11Z"/><path class="cls-11" d="M95.21,237.11a5.77,5.77,0,0,0,.84,0V256a.31.31,0,0,1-.3.3H90.87a.31.31,0,0,1-.3-.3V235.41A6,6,0,0,0,95.21,237.11Z"/><circle class="cls-12" cx="47.46" cy="235.91" r="11.9"/><circle class="cls-13" cx="47.46" cy="235.91" r="11.03"/><circle class="cls-14" cx="47.46" cy="235.91" r="9.03"/><rect class="cls-15" x="46.33" y="247.82" width="2.37" height="4.59"/><rect class="cls-16" x="45.44" y="252.41" width="3.9" height="1.22"/><path class="cls-17" d="M48.29,228.25s.43.14.41.41a.79.79,0,0,1-.28.45h-.65l-1.12.16-1.1.32-.8.41-.74.49-.8.7-.7.82-.54.87-.4.9-.27,1-.12.84v.63s-.13.31-.41.29a.73.73,0,0,1-.45-.23v-1l.12-.6.11-.64.24-.75.44-.93.58-.94.77-.86.87-.81.94-.59,1-.46,1-.35.72-.11.65,0Z"/><path class="cls-18" d="M45.6,272.46h3.68s-1.16,1.16-1.84,1.16S45.6,272.46,45.6,272.46Z"/><path class="cls-19" d="M48,275a2.84,2.84,0,0,0,.85-.43,2.46,2.46,0,0,0,.56-.8,12,12,0,0,0,.07-1.34H49.3s-1.26,1.22-1.84,1.16a6,6,0,0,1-1.84-1.16,4.5,4.5,0,0,0,0,1.16A2.47,2.47,0,0,0,46.88,275,2.82,2.82,0,0,0,48,275Z"/><path class="cls-20" d="M78.3,196.2a20.28,20.28,0,0,1,4.9.65l-.16,1a21.31,21.31,0,0,0-4.5-.63c-2.08,0-4.77.36-5.69,2.42l-.7-.52C73.17,196.79,75.84,196.2,78.3,196.2Z"/><path class="cls-20" d="M103.36,195.25a20.87,20.87,0,0,1,4.91.65l-.19,1a20.76,20.76,0,0,0-4.51-.62c-2.09,0-4.78.35-5.7,2.41l-.69-.52C98.22,195.84,100.91,195.25,103.36,195.25Z"/><path class="cls-21" d="M87.41,62.7l-5,.95-1.13-5.87h-.1c-.07.24-.23.73-.46,1.49s-.5,1.7-.83,2.85h-3.8c-.37-1.33-.66-2.31-.87-2.95s-.37-1.1-.46-1.39h-.1c-.1.49-.26,1.3-.46,2.43s-.42,2.28-.62,3.44l-4.92-.95q1.06-5,1.65-8c.39-2,.64-3.33.75-3.88l5.13-.45c.11.38.33,1.14.66,2.26s.71,2.39,1.13,3.78H78l1.23-3.71c.44-1.34.69-2.12.77-2.33l5.36.45c.06.32.25,1.5.57,3.53S86.77,59.15,87.41,62.7Z"/><path class="cls-21" d="M102.87,57a6.92,6.92,0,0,1-.57,2.81,6.62,6.62,0,0,1-4.06,3.57,9.78,9.78,0,0,1-5.67,0,6.6,6.6,0,0,1-2.31-1.24A6.55,6.55,0,0,1,87.88,57a6.91,6.91,0,0,1,.53-2.72A6.41,6.41,0,0,1,90,52a6.73,6.73,0,0,1,2.33-1.38,9,9,0,0,1,3-.47,9.22,9.22,0,0,1,2.89.43A6.58,6.58,0,0,1,100.62,52a6.14,6.14,0,0,1,1.7,2.27A6.84,6.84,0,0,1,102.87,57Zm-5.4,0a4.22,4.22,0,0,0-.2-1.24,2,2,0,0,0-.65-1,1.63,1.63,0,0,0-.53-.32,1.86,1.86,0,0,0-.73-.13,1.71,1.71,0,0,0-.7.13,1.87,1.87,0,0,0-.61.41,2.41,2.41,0,0,0-.57,1,3.41,3.41,0,0,0-.2,1.16,3.77,3.77,0,0,0,.19,1.2,2.33,2.33,0,0,0,.61,1,1.69,1.69,0,0,0,.58.37,1.92,1.92,0,0,0,.74.13,1.72,1.72,0,0,0,.68-.13,1.66,1.66,0,0,0,.58-.36,2.19,2.19,0,0,0,.61-1A3.88,3.88,0,0,0,97.47,57Z"/><path class="cls-21" d="M115.17,63.4h-10.8V59.76c0-1.39,0-2.45,0-3.18,0-1.5,0-2.79,0-3.87V50.56h5.26c0,.71,0,1.46,0,2.24s0,1.68,0,2.68c0,.62,0,1.31,0,2.08s0,1.27,0,1.53h5.54Z"/><path class="cls-21" d="M127.45,63.4H116.3c0-.29,0-.94,0-1.95s0-2.65,0-4.94c0-.76,0-1.67,0-2.74s0-2.14,0-3.21h11V54.3h-6.06v1.31h5.87v2.68h-5.87v1.37h6.17Z"/><path class="cls-21" d="M43,74.13c0,1.16,0,2,0,2.55s0,1.09,0,1.64v1.91c0,.54,0,1,0,1.38a5.65,5.65,0,0,1-.59,2.68A4.76,4.76,0,0,1,40.91,86a6.93,6.93,0,0,1-2.2,1.06,9.65,9.65,0,0,1-2.55.3,8.6,8.6,0,0,1-2.91-.4,7.51,7.51,0,0,1-1.95-1,4.8,4.8,0,0,1-1.48-1.78,6,6,0,0,1-.52-2.65c0-.38,0-.84,0-1.38v-3.6c0-.44,0-1.23,0-2.4h5.27c0,1.05,0,1.9,0,2.56v3.06c0,.48,0,1,0,1.5A2,2,0,0,0,35,82.67a1.62,1.62,0,0,0,2.31,0,2.07,2.07,0,0,0,.43-1.41c0-.52,0-1,0-1.6V76.71c0-.62,0-1.48,0-2.58Z"/><path class="cls-21" d="M58.88,74.13c0,1.25,0,2.33,0,3.23s0,1.72,0,2.46c0,1,0,2.07,0,3.32s0,2.2,0,2.83L55.25,87.3c-1.21-1.54-2.31-2.87-3.28-4S50.32,81.43,50,81l-.08,0c0,.93,0,2,0,3.25s0,2.12,0,2.65H45c0-.52,0-1.4,0-2.63s0-2.58,0-4c0-.61,0-1.35,0-2.22s0-1.83,0-2.88l3.84-1.41c.51.61,1.16,1.35,1.94,2.23S52.63,78.1,54,79.55l.06,0c0-.75,0-1.6,0-2.55s0-1.89,0-2.84Z"/><path class="cls-21" d="M74.77,80.63a5.29,5.29,0,0,1-.83,3,6.52,6.52,0,0,1-2.16,2,9.32,9.32,0,0,1-2.62,1,15,15,0,0,1-3.55.36l-2.83,0L61,87c0-.1,0-.7,0-1.8s0-2.79,0-5.08c0-.76,0-1.68,0-2.75s0-2.14,0-3.21h1.81l2.54,0a18.2,18.2,0,0,1,3.87.36A8.78,8.78,0,0,1,72,75.59a5.76,5.76,0,0,1,2.08,2.15A5.94,5.94,0,0,1,74.77,80.63Zm-5.4-.25a2.29,2.29,0,0,0-.28-1.08,2.05,2.05,0,0,0-.84-.81,3.27,3.27,0,0,0-.91-.31,6.76,6.76,0,0,0-1-.08h-.14v4.84h.09a4.8,4.8,0,0,0,1-.12,3.42,3.42,0,0,0,.89-.29,2.2,2.2,0,0,0,1-1A2.83,2.83,0,0,0,69.37,80.38Z"/><path class="cls-21" d="M87.43,87H76.27c0-.29,0-.94,0-1.94s0-2.65,0-4.94c0-.76,0-1.68,0-2.75s0-2.14,0-3.21h11v3.74H81.25v1.32h5.88v2.67H81.25v1.37h6.18Z"/><path class="cls-21" d="M103.3,86,98.09,87.3q-.57-.9-1.29-2.1c-.48-.79-1.19-2-2.13-3.65l.08-.31a3.42,3.42,0,0,0,.67-.22,2,2,0,0,0,1.09-1.12,2.13,2.13,0,0,0,.09-.65,1.74,1.74,0,0,0-.19-.76A1.25,1.25,0,0,0,95.9,78a2.47,2.47,0,0,0-.55-.2,3.3,3.3,0,0,0-.58-.05H94.5v1.17c0,.63,0,1.42,0,2.38,0,1.26,0,2.34,0,3.23V87H89.24c0-.67,0-1.41,0-2.23s0-2.36,0-4.65c0-.76,0-1.68,0-2.75s0-2.14,0-3.21h1.41l1.69,0c1.47,0,2.68,0,3.61.07a11.75,11.75,0,0,1,2.56.39A4.91,4.91,0,0,1,101.13,76a3.23,3.23,0,0,1,.77,2,3.75,3.75,0,0,1-1.61,3.15v.07L101.42,83C101.8,83.62,102.42,84.59,103.3,86Z"/><path class="cls-21" d="M114.81,82.72c-.13.71-.26,1.42-.36,2.12s-.22,1.47-.32,2.3h-.61a20,20,0,0,1-4.38-.44,9.71,9.71,0,0,1-3.39-1.46,6.57,6.57,0,0,1-2-2,5.07,5.07,0,0,1-.67-2.63,5.18,5.18,0,0,1,.66-2.62,6.46,6.46,0,0,1,2-2,10.13,10.13,0,0,1,3.52-1.48,19.19,19.19,0,0,1,4.23-.44H114c.07.49.15,1.14.26,1.94s.24,1.62.41,2.48h-.59l-1.28.06a11.19,11.19,0,0,0-1.73.23,5.6,5.6,0,0,0-1.8.67,1.35,1.35,0,0,0,0,2.36,5.4,5.4,0,0,0,1.79.69,12.41,12.41,0,0,0,1.72.22l1.28.06h.73Z"/><path class="cls-21" d="M130.47,80.56a6.91,6.91,0,0,1-.57,2.8,6.52,6.52,0,0,1-1.78,2.33,6.43,6.43,0,0,1-2.28,1.24,9.14,9.14,0,0,1-2.85.43,9.56,9.56,0,0,1-2.82-.41,6.57,6.57,0,0,1-4.08-3.55,6.58,6.58,0,0,1-.61-2.84,6.79,6.79,0,0,1,.54-2.73,6.61,6.61,0,0,1,1.62-2.22A6.8,6.8,0,0,1,120,74.24a8.75,8.75,0,0,1,3-.47,9.59,9.59,0,0,1,2.9.42,6.66,6.66,0,0,1,2.38,1.33,6.34,6.34,0,0,1,1.7,2.27A7,7,0,0,1,130.47,80.56Zm-5.4,0a4.14,4.14,0,0,0-.19-1.23,2.09,2.09,0,0,0-.65-1,2,2,0,0,0-.54-.32,1.83,1.83,0,0,0-.73-.13,1.75,1.75,0,0,0-.7.13,2.14,2.14,0,0,0-.6.41,2.43,2.43,0,0,0-.58,1,3.68,3.68,0,0,0-.2,1.16,4.07,4.07,0,0,0,.19,1.2,2.29,2.29,0,0,0,.62,1,1.65,1.65,0,0,0,.57.37,2,2,0,0,0,.74.13,1.8,1.8,0,0,0,.69-.13,1.76,1.76,0,0,0,.58-.36,2.22,2.22,0,0,0,.61-1A3.8,3.8,0,0,0,125.07,80.59Z"/><path class="cls-21" d="M145.47,75.22c-.23.54-.89,2.2-2,5s-2,5-2.69,6.78h-5.61l-1.84-4.72c-.61-1.56-1.55-3.9-2.8-7l5.28-1.41c.14.46.46,1.47.94,3L138,81h.14l1.34-4.39q.67-2.22.84-2.79Z"/><path class="cls-21" d="M157.27,87H146.12c0-.29,0-.94,0-1.94s0-2.65,0-4.94c0-.76,0-1.68,0-2.75s0-2.14,0-3.21h11v3.74H151.1v1.32H157v2.67H151.1v1.37h6.17Z"/><path class="cls-21" d="M173.15,86l-5.22,1.34-1.29-2.1c-.48-.79-1.19-2-2.13-3.65l.09-.31a3.91,3.91,0,0,0,.67-.22,1.88,1.88,0,0,0,.65-.45,1.92,1.92,0,0,0,.44-.67,2.51,2.51,0,0,0,.08-.65,1.61,1.61,0,0,0-.19-.76,1.14,1.14,0,0,0-.51-.53,2.24,2.24,0,0,0-.54-.2,3.3,3.3,0,0,0-.58-.05h-.27c0,.16,0,.55,0,1.17s0,1.42,0,2.38c0,1.26,0,2.34,0,3.23s0,1.72,0,2.48h-5.26V84.74c0-.81,0-2.36,0-4.65,0-.76,0-1.68,0-2.75V74.13h1.41l1.68,0c1.48,0,2.68,0,3.61.07a11.84,11.84,0,0,1,2.57.39A4.84,4.84,0,0,1,171,76a3.19,3.19,0,0,1,.78,2,3.79,3.79,0,0,1-1.62,3.15v.07c.39.59.77,1.18,1.14,1.76Z"/><g class="cls-22"><path class="cls-23" d="M192.28,89.83a.67.67,0,0,0-.46-.17.68.68,0,0,0-.68.69V30A24.59,24.59,0,0,0,168.86,5.51L10.37,164V345.6A24.59,24.59,0,0,0,35,370.18H166.55a24.6,24.6,0,0,0,24.59-24.58V130.86a.68.68,0,0,0,1.14.5.65.65,0,0,0,.22-.5V90.35A.69.69,0,0,0,192.28,89.83ZM13.72,349.7v0a.07.07,0,0,0,0,0Zm.34,1.44h0s0,0,0,.06A.12.12,0,0,0,14.06,351.14Zm3.39,7.13,0,0,.12.18A1.91,1.91,0,0,0,17.45,358.27Zm11.93,8.21c.17,0,.34.1.5.13l.18.05C29.82,366.6,29.6,366.55,29.38,366.48Zm1.92.43h.05l.55.09.19,0C31.82,367,31.56,367,31.3,366.91Zm137.88.16h.23Zm15-349.51a.3.3,0,0,1,0-.08,1.27,1.27,0,0,0,.13.19Z"/></g><path class="cls-24" d="M32.72,367.1l-.58-.06h0c-.38,0-.75-.1-1.12-.16a23.49,23.49,0,0,1-6.4-2.05l-.42-.21q-.54-.27-1.05-.57c-.16-.09-.32-.18-.47-.28a20.74,20.74,0,0,1-2.27-1.56l-.39-.3q-.57-.46-1.11-1l-.35-.33-.41-.39-.38-.4-.26-.26c-.1-.12-.21-.23-.31-.34a26.85,26.85,0,0,1-1.71-2.15l-.28-.41c-.28-.42-.55-.84-.81-1.28l-.27-.48a24.45,24.45,0,0,1-1.68-3.72c-.06-.18-.12-.35-.17-.53a22.94,22.94,0,0,1-.71-2.74c0-.19-.07-.37-.11-.56a24.38,24.38,0,0,1-.34-4V32.37A23.93,23.93,0,0,1,33.89,8.5a21.66,21.66,0,0,0-20.5,21.59V345.6A21.65,21.65,0,0,0,32.72,367.1Z"/><path class="cls-25" d="M190.45,32.37v311a23.74,23.74,0,0,1-1.15,7.34c-.06.18-.11.36-.18.53s-.12.35-.19.52l-.15.4c-.16.38-.32.77-.49,1.15l-.24.5-.35.69c-.08.15-.16.3-.25.45l-.27.48c-.26.44-.53.87-.82,1.3-.09.13-.18.27-.28.4s-.21.3-.32.44l-.33.44c-.11.15-.23.29-.34.43l-.36.42c-.24.28-.48.56-.73.82-.38.41-.78.81-1.19,1.2l-.38.34-.87.74-.4.31c-.43.34-.88.66-1.33,1l-.47.3c-.31.2-.62.39-.94.57-.16.1-.31.19-.47.27-.52.28-1,.55-1.58.78l-.43.19-.51.21-.52.21c-.39.14-.78.28-1.18.4l-.42.13c-.52.15-1.05.29-1.59.41l-.56.12-.61.11c-.37.06-.75.12-1.12.16h0l-.58.06a21.65,21.65,0,0,0,19.33-21.5V30.09A21.64,21.64,0,0,0,168.26,8.54,23.91,23.91,0,0,1,190.45,32.37Z"/><path class="cls-26" d="M190.45,343.32v2.28a23.92,23.92,0,0,1-23.89,23.9H35a23.93,23.93,0,0,1-23.9-23.9v-2.28a24.38,24.38,0,0,0,.34,4c0,.19.07.37.11.56a22.94,22.94,0,0,0,.71,2.74c.05.18.11.35.17.53a24.45,24.45,0,0,0,1.68,3.72l.27.48c.26.44.53.86.81,1.28l.28.41a26.85,26.85,0,0,0,1.71,2.15c.1.11.21.22.31.34l.26.26.38.4.41.39.35.33q.54.49,1.11,1l.39.3a20.74,20.74,0,0,0,2.27,1.56c.15.1.31.19.47.28q.51.3,1.05.57l.42.21a23.49,23.49,0,0,0,6.4,2.05c.37.06.74.12,1.12.16h0c.39,0,.77.08,1.16.11l.59,0c.37,0,.75,0,1.12,0H166.56l1.11,0,.59,0,.94-.08.22,0h0c.38,0,.75-.1,1.12-.16l.61-.11.56-.12c.54-.12,1.07-.26,1.59-.41l.42-.13c.4-.12.79-.26,1.18-.4l.52-.21.51-.21.43-.19c.53-.23,1.06-.5,1.58-.78.16-.08.31-.17.47-.27.32-.18.63-.37.94-.57.16-.09.31-.19.47-.3.45-.3.9-.62,1.33-1l.4-.31.87-.74.38-.34c.41-.39.81-.79,1.19-1.2.25-.26.5-.54.73-.82l.36-.42c.12-.14.23-.28.34-.43l.33-.44c.11-.14.22-.29.32-.44s.19-.27.28-.4c.29-.43.56-.86.82-1.3l.27-.48c.09-.15.17-.3.25-.45l.35-.69.24-.5c.17-.38.33-.77.49-1.15l.15-.4c.07-.17.13-.34.19-.52s.12-.35.18-.53A23.74,23.74,0,0,0,190.45,343.32Z"/><path class="cls-27" d="M190.45,30.09v2.28A23.91,23.91,0,0,0,168.84,8.59l-.58-.05-.59,0h0c-.37,0-.73,0-1.1,0H35c-.37,0-.74,0-1.1,0h0A23.93,23.93,0,0,0,11.11,32.37V30.09c0-.24,0-.47,0-.7s0-.36,0-.53q0-.57.09-1.14l.06-.58c0-.11,0-.21,0-.31l.06-.38c0-.19.06-.39.1-.59s.12-.68.2-1l.12-.5c.12-.49.26-1,.41-1.46l.15-.46c.06-.19.13-.37.2-.56s.11-.3.17-.45l.15-.38c.06-.15.12-.3.19-.44a3.49,3.49,0,0,1,.15-.34,5.24,5.24,0,0,1,.23-.48c.13-.29.27-.57.42-.85s.15-.28.23-.42.19-.33.28-.49a23.89,23.89,0,0,1,2.25-3.2L17,14.4l.42-.47q.36-.39.72-.75c.27-.27.54-.52.81-.77s.56-.5.85-.73l.43-.36.89-.67.93-.63c.31-.2.62-.39.95-.58l.49-.28L24,8.9l.5-.26L25,8.39,26,8l.5-.2,0,0,.51-.19.5-.17.58-.18L28.72,7l.56-.14.56-.13c.38-.09.76-.16,1.14-.23l.57-.09c.41-.06.83-.11,1.24-.14s.66-.06,1-.08l.61,0H167.17l.51,0c.39,0,.77,0,1.16.08h0l.58.06.58.08.57.09.57.11h0a5.59,5.59,0,0,1,.56.12l.51.11.11,0,.48.13c.22,0,.45.12.67.19l.44.14c.34.11.67.22,1,.35a6.44,6.44,0,0,1,.66.25l.48.2.51.23.51.25a22.77,22.77,0,0,1,3.42,2c.13.1.27.19.39.29.48.36.93.73,1.38,1.12.19.16.38.34.57.52A23.39,23.39,0,0,1,185,14.91l.35.43c.24.31.47.61.69.92l.32.48c.19.27.37.54.54.82l.26.43.46.81.21.41c.24.46.46.92.67,1.4l.15.37c.2.48.38,1,.54,1.45q.1.27.18.54a23.36,23.36,0,0,1,.77,3.23,3.48,3.48,0,0,1,.05.36c0,.19.06.38.08.57s0,.39.07.59,0,.39,0,.58c0,.37,0,.73.05,1.09S190.45,29.86,190.45,30.09Z"/><path d="M167.67,8.5h0c-.36,0-.73,0-1.1,0H35c-.37,0-.74,0-1.1,0h0a21.66,21.66,0,0,0-20.5,21.59V345.6A21.64,21.64,0,0,0,33.3,367.15l.59,0c.37,0,.75,0,1.12,0H166.56l1.11,0,.59,0a21.64,21.64,0,0,0,19.91-21.55V30.09A21.64,21.64,0,0,0,167.67,8.5Zm18.68,337.1a19.88,19.88,0,0,1-18.22,19.73,5.07,5.07,0,0,1-.55,0l-1,0H35c-.34,0-.69,0-1,0a4.75,4.75,0,0,1-.54,0A19.87,19.87,0,0,1,15.22,345.6V30.09A19.79,19.79,0,0,1,33.94,10.32H34l1,0H166.56l1,0h0a19.79,19.79,0,0,1,18.75,19.77Z"/><path class="cls-28" d="M186.34,30.22V345.73a19.56,19.56,0,0,1-2.59,9.73c-.15.26-.31.52-.47.78s-.5.75-.76,1.12a20.94,20.94,0,0,1-2.55,2.86A20.61,20.61,0,0,0,182.69,350v-3.63c0-.22,0-.44,0-.65V30.18c0-.22,0-.44,0-.66V26A20.69,20.69,0,0,0,180,15.66,19.75,19.75,0,0,1,186.34,30.22Z"/><path d="M167.51,12.15h-.09l-.86,0H35l-.89,0H34A18,18,0,0,0,17,30.09V345.6a18.05,18.05,0,0,0,16.55,17.91l.43,0h.06l.93,0H166.56l.92,0h.05l.46,0a18,18,0,0,0,16.53-17.91V30.09A18,18,0,0,0,167.51,12.15ZM179.73,345.6a13.22,13.22,0,0,1-12.11,13.13l-.2,0H34A13.24,13.24,0,0,1,21.84,345.6V30.09a13.18,13.18,0,0,1,12.3-13.15h.29l.58,0H166.56l.59,0h.11a13.17,13.17,0,0,1,12.47,13.16Z"/><path d="M145.5,16.91v1.72A10.48,10.48,0,0,1,135,29.12H66.55A10.49,10.49,0,0,1,56.06,18.63V16.91Z"/><path d="M145.5,16.92v1.72A10.48,10.48,0,0,1,135,29.12H66.55A10.49,10.49,0,0,1,56.06,18.64V16.92Z"/><path class="cls-29" d="M182.69,346.35V350A20.61,20.61,0,0,1,180,360.22a19.67,19.67,0,0,1-11.83,5.21l-.55,0c-.34,0-.68,0-1,0H35c-.34,0-.69,0-1,0l-.54,0-.75-.08a19.64,19.64,0,0,1-11.08-5.13A20.6,20.6,0,0,1,18.88,350V345.7a16.21,16.21,0,0,0,14.86,16.09l.34,0h.1l.84,0H166.56c.28,0,.56,0,.83,0h.11l.37,0A16.22,16.22,0,0,0,182.69,346.35Z"/><path class="cls-30" d="M186.34,30.22l0,0a19.78,19.78,0,0,0-18.75-19.76h0q-.5,0-1,0H35c-.34,0-.68,0-1,0H34c-.43,0-.85.06-1.27.11a19.71,19.71,0,0,0-11.08,5.1,20.69,20.69,0,0,0-2.72,10.3v4.25A16.14,16.14,0,0,1,34.06,14.07h.2L35,14H166.56l.69,0h.17a16.12,16.12,0,0,1,15.27,15.45V26A20.69,20.69,0,0,0,180,15.66,19.75,19.75,0,0,1,186.34,30.22Z"/><path class="cls-31" d="M21.61,360.12a19.79,19.79,0,0,1-6.39-14.52V30.09a19.75,19.75,0,0,1,6.37-14.56,20.72,20.72,0,0,0-2.72,10.3v324A20.56,20.56,0,0,0,21.61,360.12Z"/><path class="cls-32" d="M186.34,30.22V345.73a19.56,19.56,0,0,1-2.59,9.73c-.15.26-.31.52-.47.78s-.49.75-.76,1.12a19.6,19.6,0,0,1-2.57,2.89l0,0A20.61,20.61,0,0,0,182.69,350V26A20.69,20.69,0,0,0,180,15.66,19.75,19.75,0,0,1,186.34,30.22Z"/><rect class="cls-33" x="89.73" y="18.33" width="20.99" height="2.21" rx="0.29"/></g></g></svg>
